<svg width="236" height="68" viewBox="0 0 236 68" fill="none" xmlns="http://www.w3.org/2000/svg">
<rect width="236" height="68" rx="12" fill="black"/>
<g clip-path="url(#clip0_1375_82804)">
<path d="M32 16L68 16V52H32V16Z" fill="#F7DF1E"/>
<path d="M41.4689 46.0861L44.2237 44.4189C44.7553 45.3612 45.2388 46.1585 46.3985 46.1585C47.5101 46.1585 48.2112 45.7237 48.2112 44.0323V32.5294H51.5942V44.0801C51.5942 47.584 49.5402 49.179 46.5435 49.179C43.8372 49.179 42.2662 47.7774 41.4688 46.0858M53.4317 45.7236L56.1863 44.1288C56.9115 45.313 57.854 46.1829 59.5212 46.1829C60.9231 46.1829 61.8169 45.482 61.8169 44.5153C61.8169 43.3555 60.8986 42.9445 59.352 42.2681L58.5065 41.9053C56.0656 40.8665 54.4466 39.5615 54.4466 36.8067C54.4466 34.2693 56.3798 32.3359 59.4005 32.3359C61.5513 32.3359 63.0979 33.0852 64.2094 35.0425L61.5752 36.7343C60.9951 35.6952 60.3671 35.2844 59.4004 35.2844C58.4096 35.2844 57.7813 35.9127 57.7813 36.7343C57.7813 37.7492 58.4096 38.1602 59.8594 38.7885L60.7051 39.1509C63.5809 40.3835 65.1999 41.64 65.1999 44.4671C65.1999 47.5122 62.8076 49.1794 59.5936 49.1794C56.4522 49.1794 54.4223 47.6812 53.4316 45.7237" fill="black"/>
</g>
<path d="M86.896 25.32V37.344C86.896 38.832 86.44 40.008 85.528 40.872C84.632 41.736 83.448 42.168 81.976 42.168C80.504 42.168 79.312 41.736 78.4 40.872C77.504 40.008 77.056 38.832 77.056 37.344H79.816C79.832 38.08 80.016 38.664 80.368 39.096C80.736 39.528 81.272 39.744 81.976 39.744C82.68 39.744 83.216 39.528 83.584 39.096C83.952 38.648 84.136 38.064 84.136 37.344V25.32H86.896ZM90.4349 35.328C90.4349 34 90.7069 32.824 91.2509 31.8C91.8109 30.776 92.5629 29.984 93.5069 29.424C94.4669 28.848 95.5229 28.56 96.6749 28.56C97.7149 28.56 98.6189 28.768 99.3869 29.184C100.171 29.584 100.795 30.088 101.259 30.696V28.776H104.019V42H101.259V40.032C100.795 40.656 100.163 41.176 99.3629 41.592C98.5629 42.008 97.6509 42.216 96.6269 42.216C95.4909 42.216 94.4509 41.928 93.5069 41.352C92.5629 40.76 91.8109 39.944 91.2509 38.904C90.7069 37.848 90.4349 36.656 90.4349 35.328ZM101.259 35.376C101.259 34.464 101.067 33.672 100.683 33C100.315 32.328 99.8269 31.816 99.2189 31.464C98.6109 31.112 97.9549 30.936 97.2509 30.936C96.5469 30.936 95.8909 31.112 95.2829 31.464C94.6749 31.8 94.1789 32.304 93.7949 32.976C93.4269 33.632 93.2429 34.416 93.2429 35.328C93.2429 36.24 93.4269 37.04 93.7949 37.728C94.1789 38.416 94.6749 38.944 95.2829 39.312C95.9069 39.664 96.5629 39.84 97.2509 39.84C97.9549 39.84 98.6109 39.664 99.2189 39.312C99.8269 38.96 100.315 38.448 100.683 37.776C101.067 37.088 101.259 36.288 101.259 35.376ZM112.725 39.552L116.469 28.776H119.372L114.333 42H111.069L106.053 28.776H108.98L112.725 39.552ZM120.529 35.328C120.529 34 120.801 32.824 121.345 31.8C121.905 30.776 122.657 29.984 123.601 29.424C124.561 28.848 125.617 28.56 126.769 28.56C127.809 28.56 128.713 28.768 129.481 29.184C130.265 29.584 130.889 30.088 131.353 30.696V28.776H134.113V42H131.353V40.032C130.889 40.656 130.257 41.176 129.457 41.592C128.657 42.008 127.745 42.216 126.721 42.216C125.585 42.216 124.545 41.928 123.601 41.352C122.657 40.76 121.905 39.944 121.345 38.904C120.801 37.848 120.529 36.656 120.529 35.328ZM131.353 35.376C131.353 34.464 131.161 33.672 130.777 33C130.409 32.328 129.921 31.816 129.313 31.464C128.705 31.112 128.049 30.936 127.345 30.936C126.641 30.936 125.985 31.112 125.377 31.464C124.769 31.8 124.273 32.304 123.889 32.976C123.521 33.632 123.337 34.416 123.337 35.328C123.337 36.24 123.521 37.04 123.889 37.728C124.273 38.416 124.769 38.944 125.377 39.312C126.001 39.664 126.657 39.84 127.345 39.84C128.049 39.84 128.705 39.664 129.313 39.312C129.921 38.96 130.409 38.448 130.777 37.776C131.161 37.088 131.353 36.288 131.353 35.376ZM142.506 42.216C141.466 42.216 140.53 42.032 139.698 41.664C138.882 41.28 138.234 40.768 137.754 40.128C137.274 39.472 137.018 38.744 136.986 37.944H139.818C139.866 38.504 140.13 38.976 140.61 39.36C141.106 39.728 141.722 39.912 142.458 39.912C143.226 39.912 143.818 39.768 144.234 39.48C144.666 39.176 144.882 38.792 144.882 38.328C144.882 37.832 144.642 37.464 144.162 37.224C143.698 36.984 142.954 36.72 141.93 36.432C140.938 36.16 140.13 35.896 139.506 35.64C138.882 35.384 138.338 34.992 137.874 34.464C137.426 33.936 137.202 33.24 137.202 32.376C137.202 31.672 137.41 31.032 137.826 30.456C138.242 29.864 138.834 29.4 139.602 29.064C140.386 28.728 141.282 28.56 142.29 28.56C143.794 28.56 145.002 28.944 145.914 29.712C146.842 30.464 147.338 31.496 147.402 32.808H144.666C144.618 32.216 144.378 31.744 143.946 31.392C143.514 31.04 142.93 30.864 142.194 30.864C141.474 30.864 140.922 31 140.538 31.272C140.154 31.544 139.962 31.904 139.962 32.352C139.962 32.704 140.09 33 140.346 33.24C140.602 33.48 140.914 33.672 141.282 33.816C141.65 33.944 142.194 34.112 142.914 34.32C143.874 34.576 144.658 34.84 145.266 35.112C145.89 35.368 146.426 35.752 146.874 36.264C147.322 36.776 147.554 37.456 147.57 38.304C147.57 39.056 147.362 39.728 146.946 40.32C146.53 40.912 145.938 41.376 145.17 41.712C144.418 42.048 143.53 42.216 142.506 42.216ZM149.615 35.376C149.615 34.016 149.887 32.824 150.431 31.8C150.991 30.76 151.759 29.96 152.735 29.4C153.711 28.84 154.831 28.56 156.095 28.56C157.695 28.56 159.015 28.944 160.055 29.712C161.111 30.464 161.823 31.544 162.191 32.952H159.239C158.999 32.296 158.615 31.784 158.087 31.416C157.559 31.048 156.895 30.864 156.095 30.864C154.975 30.864 154.079 31.264 153.407 32.064C152.751 32.848 152.423 33.952 152.423 35.376C152.423 36.8 152.751 37.912 153.407 38.712C154.079 39.512 154.975 39.912 156.095 39.912C157.679 39.912 158.727 39.216 159.239 37.824H162.191C161.807 39.168 161.087 40.24 160.031 41.04C158.975 41.824 157.663 42.216 156.095 42.216C154.831 42.216 153.711 41.936 152.735 41.376C151.759 40.8 150.991 40 150.431 38.976C149.887 37.936 149.615 36.736 149.615 35.376ZM167.653 30.696C168.053 30.024 168.581 29.504 169.237 29.136C169.909 28.752 170.701 28.56 171.613 28.56V31.392H170.917C169.845 31.392 169.029 31.664 168.469 32.208C167.925 32.752 167.653 33.696 167.653 35.04V42H164.917V28.776H167.653V30.696ZM175.52 27.024C175.024 27.024 174.608 26.856 174.272 26.52C173.936 26.184 173.768 25.768 173.768 25.272C173.768 24.776 173.936 24.36 174.272 24.024C174.608 23.688 175.024 23.52 175.52 23.52C176 23.52 176.408 23.688 176.744 24.024C177.08 24.36 177.248 24.776 177.248 25.272C177.248 25.768 177.08 26.184 176.744 26.52C176.408 26.856 176 27.024 175.52 27.024ZM176.864 28.776V42H174.128V28.776H176.864ZM183.192 30.72C183.656 30.112 184.288 29.6 185.088 29.184C185.888 28.768 186.792 28.56 187.8 28.56C188.952 28.56 190 28.848 190.944 29.424C191.904 29.984 192.656 30.776 193.2 31.8C193.744 32.824 194.016 34 194.016 35.328C194.016 36.656 193.744 37.848 193.2 38.904C192.656 39.944 191.904 40.76 190.944 41.352C190 41.928 188.952 42.216 187.8 42.216C186.792 42.216 185.896 42.016 185.112 41.616C184.328 41.2 183.688 40.688 183.192 40.08V48.288H180.456V28.776H183.192V30.72ZM191.232 35.328C191.232 34.416 191.04 33.632 190.656 32.976C190.288 32.304 189.792 31.8 189.168 31.464C188.56 31.112 187.904 30.936 187.2 30.936C186.512 30.936 185.856 31.112 185.232 31.464C184.624 31.816 184.128 32.328 183.744 33C183.376 33.672 183.192 34.464 183.192 35.376C183.192 36.288 183.376 37.088 183.744 37.776C184.128 38.448 184.624 38.96 185.232 39.312C185.856 39.664 186.512 39.84 187.2 39.84C187.904 39.84 188.56 39.664 189.168 39.312C189.792 38.944 190.288 38.416 190.656 37.728C191.04 37.04 191.232 36.24 191.232 35.328ZM199.914 31.008V38.328C199.914 38.824 200.026 39.184 200.25 39.408C200.49 39.616 200.89 39.72 201.45 39.72H203.13V42H200.97C199.738 42 198.794 41.712 198.138 41.136C197.482 40.56 197.154 39.624 197.154 38.328V31.008H195.594V28.776H197.154V25.488H199.914V28.776H203.13V31.008H199.914Z" fill="white"/>
<defs>
<clipPath id="clip0_1375_82804">
<rect width="36" height="36" fill="white" transform="translate(32 16)"/>
</clipPath>
</defs>
</svg>
