<svg width="221" height="68" viewBox="0 0 221 68" fill="none" xmlns="http://www.w3.org/2000/svg">
<rect width="221" height="68" rx="12" fill="black"/>
<g clip-path="url(#clip0_244_699)">
<path d="M32 16L68 16V52H32V16Z" fill="#F7DF1E"/>
<path d="M41.4658 46.0842L44.2206 44.4169C44.7522 45.3592 45.2357 46.1566 46.3954 46.1566C47.507 46.1566 48.208 45.7218 48.208 44.0303V32.5275H51.5911V44.0781C51.5911 47.5821 49.5371 49.1771 46.5404 49.1771C43.834 49.1771 42.2631 47.7755 41.4656 46.0839M53.4286 45.7216L56.1832 44.1268C56.9084 45.311 57.8508 46.1809 59.5181 46.1809C60.92 46.1809 61.8138 45.48 61.8138 44.5134C61.8138 43.3535 60.8955 42.9426 59.3489 42.2662L58.5033 41.9034C56.0625 40.8646 54.4435 39.5596 54.4435 36.8047C54.4435 34.2673 56.3767 32.334 59.3974 32.334C61.5482 32.334 63.0947 33.0832 64.2062 35.0406L61.5721 36.7323C60.992 35.6932 60.3639 35.2825 59.3973 35.2825C58.4065 35.2825 57.7781 35.9108 57.7781 36.7323C57.7781 37.7472 58.4065 38.1582 59.8563 38.7866L60.702 39.149C63.5778 40.3815 65.1968 41.638 65.1968 44.4651C65.1968 47.5102 62.8045 49.1775 59.5905 49.1775C56.4491 49.1775 54.4192 47.6793 53.4285 45.7218" fill="black"/>
</g>
<path d="M84.3203 26.0312H86.8984V38.0547C86.8984 41.3359 84.8359 43.2344 81.7188 43.2344C78.8359 43.2344 76.6797 41.6172 76.6797 38.7344H79.2344C79.2578 40.1641 80.3125 41.0312 81.7891 41.0312C83.4062 41.0312 84.3203 40 84.3203 38.0547V26.0312ZM89.5469 39.4141C89.5469 36.5078 92.0078 35.7578 94.3047 35.5938C95.1484 35.5352 97.0586 35.4297 97.6562 35.4062L97.6328 34.3984C97.6328 32.9688 96.7656 32.125 95.0547 32.125C93.5781 32.125 92.6875 32.8047 92.4297 33.7422H89.9453C90.1797 31.6328 92.1484 30.1094 95.1484 30.1094C97.1641 30.1094 100.141 30.8594 100.141 34.5391V43H97.7031V41.2656H97.6094C97.1172 42.2266 95.9453 43.2812 93.8359 43.2812C91.4219 43.2812 89.5469 41.8984 89.5469 39.4141ZM91.9844 39.4375C91.9844 40.6562 92.9922 41.2891 94.3984 41.2891C96.4375 41.2891 97.6562 39.9297 97.6562 38.4062V37.2344L94.6562 37.4453C93.0156 37.5625 91.9844 38.1719 91.9844 39.4375ZM113.617 30.2734L109 43H106.305L101.688 30.2734H104.383L107.594 40.0469H107.711L110.922 30.2734H113.617ZM114.672 39.4141C114.672 36.5078 117.133 35.7578 119.43 35.5938C120.273 35.5352 122.184 35.4297 122.781 35.4062L122.758 34.3984C122.758 32.9688 121.891 32.125 120.18 32.125C118.703 32.125 117.812 32.8047 117.555 33.7422H115.07C115.305 31.6328 117.273 30.1094 120.273 30.1094C122.289 30.1094 125.266 30.8594 125.266 34.5391V43H122.828V41.2656H122.734C122.242 42.2266 121.07 43.2812 118.961 43.2812C116.547 43.2812 114.672 41.8984 114.672 39.4141ZM117.109 39.4375C117.109 40.6562 118.117 41.2891 119.523 41.2891C121.562 41.2891 122.781 39.9297 122.781 38.4062V37.2344L119.781 37.4453C118.141 37.5625 117.109 38.1719 117.109 39.4375ZM135.438 33.7422C135.203 32.7344 134.406 32.0781 133.023 32.0781C131.594 32.0781 130.562 32.8281 130.586 33.7891C130.562 34.5391 131.172 35.0781 132.578 35.4062L134.594 35.875C136.938 36.3906 138.062 37.5156 138.086 39.3203C138.062 41.6172 136.141 43.2578 132.883 43.2578C129.836 43.2578 128.008 41.8984 127.703 39.5312H130.258C130.469 40.6797 131.359 41.2422 132.859 41.2422C134.477 41.2422 135.508 40.5859 135.531 39.5078C135.508 38.6875 134.898 38.1484 133.562 37.8438L131.57 37.4219C129.273 36.9062 128.078 35.6875 128.078 33.9297C128.078 31.6562 130.047 30.1094 133 30.1094C135.836 30.1094 137.594 31.5625 137.852 33.7422H135.438ZM145.914 43.2578C142.211 43.2578 139.961 40.5156 139.961 36.6953C139.961 32.8047 142.281 30.1094 145.867 30.1094C148.773 30.1094 150.883 31.8203 151.141 34.3984H148.703C148.445 33.2031 147.484 32.1953 145.914 32.1953C143.852 32.1953 142.469 33.9062 142.469 36.625C142.469 39.4141 143.828 41.125 145.914 41.125C147.32 41.125 148.398 40.3516 148.703 38.9688H151.141C150.859 41.4297 148.914 43.2578 145.914 43.2578ZM153.508 43V30.2734H155.922V32.2891H156.062C156.531 30.9297 157.797 30.0859 159.297 30.0859C159.602 30.0859 160.094 30.1094 160.352 30.1328V32.5234C160.141 32.4766 159.555 32.3828 159.039 32.3828C157.305 32.3828 156.016 33.5781 156.016 35.2422V43H153.508ZM162.227 43V30.2734H164.734V43H162.227ZM163.492 28.3047C162.625 28.3047 161.898 27.6484 161.898 26.8281C161.898 26.0078 162.625 25.3516 163.492 25.3516C164.336 25.3516 165.062 26.0078 165.062 26.8281C165.062 27.6484 164.336 28.3047 163.492 28.3047ZM167.781 47.7812V30.2734H170.219V32.3359H170.43C170.875 31.5391 171.742 30.1094 174.086 30.1094C177.156 30.1094 179.43 32.5234 179.43 36.6719C179.43 40.7734 177.203 43.2578 174.109 43.2578C171.789 43.2578 170.875 41.8516 170.43 41.0078H170.289V47.7812H167.781ZM170.242 36.625C170.242 39.2969 171.414 41.125 173.547 41.125C175.75 41.125 176.898 39.1797 176.898 36.625C176.898 34.1172 175.773 32.2422 173.547 32.2422C171.391 32.2422 170.242 33.9766 170.242 36.625ZM187.867 30.2734V32.2656H185.266V39.25C185.266 40.6797 185.992 40.9375 186.789 40.9609C187.141 40.9609 187.703 40.9141 188.055 40.8906V43.0703C187.703 43.1172 187.164 43.1641 186.484 43.1641C184.516 43.1641 182.758 42.0859 182.781 39.7656V32.2656H180.906V30.2734H182.781V27.2266H185.266V30.2734H187.867Z" fill="white"/>
<defs>
<clipPath id="clip0_244_699">
<rect width="36" height="36" fill="white" transform="translate(32 16)"/>
</clipPath>
</defs>
</svg>
