<svg width="151" height="64" viewBox="0 0 151 64" fill="none" xmlns="http://www.w3.org/2000/svg">
<rect width="151" height="64" rx="12" fill="#99424F"/>
<g clip-path="url(#clip0_1375_82811)">
<path d="M47.0846 27.7321L43.1278 16H59.9381L55.9677 27.7662C55.7968 27.8072 55.6289 27.8595 55.4649 27.9228L51.5426 19.8833L47.609 27.8752C47.4376 27.8156 47.2624 27.7678 47.0846 27.7321ZM34.157 46.9371C39.4443 50.6686 45.3091 43.4481 53.2977 42.5384C57.8852 42.2653 61.0034 39.4436 59.2267 35.0754C55.9234 37.1197 52.8361 34.4408 52.8577 31.7527H50.3476C50.2652 34.1526 48.4686 36.0408 45.6836 35.7601C43.5038 39.0366 40.9773 40.8776 38.1106 41.8133C36.173 40.9149 34.3496 38.7264 35.1763 35.8034C34.8166 35.7631 34.4639 35.6741 34.1278 35.539C31.4629 40.5389 31.1336 44.4904 34.157 46.9371ZM38.0933 31.7531C38.0933 29.854 36.0331 28.6607 34.394 29.6102C32.7549 30.5597 32.7548 32.9464 34.394 33.8959C36.0331 34.8454 38.0933 33.6521 38.0933 31.7531ZM48.7555 31.7295C48.7555 29.8305 46.6953 28.6371 45.0562 29.5867C43.4171 30.5362 43.417 32.9229 45.0562 33.8723C46.6954 34.8219 48.7554 33.6286 48.7554 31.7295M59.3776 31.7295C59.3776 29.8305 57.3174 28.6371 55.6783 29.5867C54.0392 30.5362 54.0391 32.9229 55.6783 33.8723C57.3175 34.8219 59.3775 33.6286 59.3775 31.7295" fill="white"/>
</g>
<path d="M78.896 23.32V35.344C78.896 36.832 78.44 38.008 77.528 38.872C76.632 39.736 75.448 40.168 73.976 40.168C72.504 40.168 71.312 39.736 70.4 38.872C69.504 38.008 69.056 36.832 69.056 35.344H71.816C71.832 36.08 72.016 36.664 72.368 37.096C72.736 37.528 73.272 37.744 73.976 37.744C74.68 37.744 75.216 37.528 75.584 37.096C75.952 36.648 76.136 36.064 76.136 35.344V23.32H78.896ZM95.4669 33.064C95.4669 33.56 95.4349 34.008 95.3709 34.408H85.2669C85.3469 35.464 85.7389 36.312 86.4429 36.952C87.1469 37.592 88.0109 37.912 89.0349 37.912C90.5069 37.912 91.5469 37.296 92.1549 36.064H95.1069C94.7069 37.28 93.9789 38.28 92.9229 39.064C91.8829 39.832 90.5869 40.216 89.0349 40.216C87.7709 40.216 86.6349 39.936 85.6269 39.376C84.6349 38.8 83.8509 38 83.2749 36.976C82.7149 35.936 82.4349 34.736 82.4349 33.376C82.4349 32.016 82.7069 30.824 83.2509 29.8C83.8109 28.76 84.5869 27.96 85.5789 27.4C86.5869 26.84 87.7389 26.56 89.0349 26.56C90.2829 26.56 91.3949 26.832 92.3709 27.376C93.3469 27.92 94.1069 28.688 94.6509 29.68C95.1949 30.656 95.4669 31.784 95.4669 33.064ZM92.6109 32.2C92.5949 31.192 92.2349 30.384 91.5309 29.776C90.8269 29.168 89.9549 28.864 88.9149 28.864C87.9709 28.864 87.1629 29.168 86.4909 29.776C85.8189 30.368 85.4189 31.176 85.2909 32.2H92.6109ZM102.959 40.216C101.919 40.216 100.983 40.032 100.151 39.664C99.3354 39.28 98.6874 38.768 98.2074 38.128C97.7274 37.472 97.4714 36.744 97.4394 35.944H100.271C100.319 36.504 100.583 36.976 101.063 37.36C101.559 37.728 102.175 37.912 102.911 37.912C103.679 37.912 104.271 37.768 104.687 37.48C105.119 37.176 105.335 36.792 105.335 36.328C105.335 35.832 105.095 35.464 104.615 35.224C104.151 34.984 103.407 34.72 102.383 34.432C101.391 34.16 100.583 33.896 99.9594 33.64C99.3354 33.384 98.7914 32.992 98.3274 32.464C97.8794 31.936 97.6554 31.24 97.6554 30.376C97.6554 29.672 97.8634 29.032 98.2794 28.456C98.6954 27.864 99.2874 27.4 100.055 27.064C100.839 26.728 101.735 26.56 102.743 26.56C104.247 26.56 105.455 26.944 106.367 27.712C107.295 28.464 107.791 29.496 107.855 30.808H105.119C105.071 30.216 104.831 29.744 104.399 29.392C103.967 29.04 103.383 28.864 102.647 28.864C101.927 28.864 101.375 29 100.991 29.272C100.607 29.544 100.415 29.904 100.415 30.352C100.415 30.704 100.543 31 100.799 31.24C101.055 31.48 101.367 31.672 101.735 31.816C102.103 31.944 102.647 32.112 103.367 32.32C104.327 32.576 105.111 32.84 105.719 33.112C106.343 33.368 106.879 33.752 107.327 34.264C107.775 34.776 108.007 35.456 108.023 36.304C108.023 37.056 107.815 37.728 107.399 38.32C106.983 38.912 106.391 39.376 105.623 39.712C104.871 40.048 103.983 40.216 102.959 40.216ZM114.172 29.008V36.328C114.172 36.824 114.284 37.184 114.508 37.408C114.748 37.616 115.148 37.72 115.708 37.72H117.388V40H115.228C113.996 40 113.052 39.712 112.396 39.136C111.74 38.56 111.412 37.624 111.412 36.328V29.008H109.852V26.776H111.412V23.488H114.172V26.776H117.388V29.008H114.172Z" fill="white"/>
<defs>
<clipPath id="clip0_1375_82811">
<rect width="28" height="32" fill="white" transform="translate(32 16)"/>
</clipPath>
</defs>
</svg>
