<svg width="147" height="64" viewBox="0 0 147 64" fill="none" xmlns="http://www.w3.org/2000/svg">
<rect width="147" height="64" rx="12" fill="#99424F"/>
<g clip-path="url(#clip0_244_695)">
<path d="M47.0808 27.7321L43.124 16H59.9343L55.9639 27.7662C55.793 27.8072 55.6251 27.8595 55.4611 27.9228L51.5388 19.8833L47.6052 27.8752C47.4338 27.8156 47.2586 27.7678 47.0808 27.7321ZM34.1532 46.9371C39.4406 50.6686 45.3053 43.4481 53.2939 42.5384C57.8814 42.2653 60.9996 39.4436 59.2229 35.0754C55.9196 37.1197 52.8324 34.4408 52.8539 31.7527H50.3438C50.2614 34.1526 48.4648 36.0408 45.6798 35.7601C43.5 39.0366 40.9735 40.8776 38.1068 41.8133C36.1692 40.9149 34.3458 38.7264 35.1725 35.8034C34.8128 35.7631 34.4601 35.6741 34.1241 35.539C31.4591 40.5389 31.1298 44.4904 34.1532 46.9371ZM38.0895 31.7531C38.0895 29.854 36.0294 28.6607 34.3902 29.6102C32.7511 30.5597 32.751 32.9464 34.3902 33.8959C36.0294 34.8454 38.0895 33.6521 38.0895 31.7531ZM48.7517 31.7295C48.7517 29.8305 46.6915 28.6371 45.0524 29.5867C43.4133 30.5362 43.4132 32.9229 45.0524 33.8723C46.6916 34.8219 48.7517 33.6286 48.7517 31.7295M59.3738 31.7295C59.3738 29.8305 57.3136 28.6371 55.6745 29.5867C54.0354 30.5362 54.0353 32.9229 55.6745 33.8723C57.3137 34.8219 59.3738 33.6286 59.3738 31.7295" fill="white"/>
</g>
<path d="M76.3203 24.0312H78.8984V36.0547C78.8984 39.3359 76.8359 41.2344 73.7188 41.2344C70.8359 41.2344 68.6797 39.6172 68.6797 36.7344H71.2344C71.2578 38.1641 72.3125 39.0312 73.7891 39.0312C75.4062 39.0312 76.3203 38 76.3203 36.0547V24.0312ZM87.6172 41.2578C83.8672 41.2578 81.5703 38.6797 81.5703 34.7188C81.5703 30.8047 83.9141 28.1094 87.4531 28.1094C90.3594 28.1094 93.1016 29.9141 93.1016 34.5078V35.3984H84.0547C84.125 37.8125 85.543 39.1953 87.6406 39.1953C89.0703 39.1953 89.9844 38.5859 90.4062 37.8125H92.9375C92.375 39.875 90.4062 41.2578 87.6172 41.2578ZM84.0781 33.5234H90.6406C90.6406 31.5781 89.3984 30.1719 87.4766 30.1719C85.4727 30.1719 84.1719 31.7188 84.0781 33.5234ZM102.734 31.7422C102.5 30.7344 101.703 30.0781 100.32 30.0781C98.8906 30.0781 97.8594 30.8281 97.8828 31.7891C97.8594 32.5391 98.4688 33.0781 99.875 33.4062L101.891 33.875C104.234 34.3906 105.359 35.5156 105.383 37.3203C105.359 39.6172 103.438 41.2578 100.18 41.2578C97.1328 41.2578 95.3047 39.8984 95 37.5312H97.5547C97.7656 38.6797 98.6562 39.2422 100.156 39.2422C101.773 39.2422 102.805 38.5859 102.828 37.5078C102.805 36.6875 102.195 36.1484 100.859 35.8438L98.8672 35.4219C96.5703 34.9062 95.375 33.6875 95.375 31.9297C95.375 29.6562 97.3438 28.1094 100.297 28.1094C103.133 28.1094 104.891 29.5625 105.148 31.7422H102.734ZM113.773 28.2734V30.2656H111.172V37.25C111.172 38.6797 111.898 38.9375 112.695 38.9609C113.047 38.9609 113.609 38.9141 113.961 38.8906V41.0703C113.609 41.1172 113.07 41.1641 112.391 41.1641C110.422 41.1641 108.664 40.0859 108.688 37.7656V30.2656H106.812V28.2734H108.688V25.2266H111.172V28.2734H113.773Z" fill="white"/>
<defs>
<clipPath id="clip0_244_695">
<rect width="28" height="32" fill="white" transform="translate(32 16)"/>
</clipPath>
</defs>
</svg>
