<svg width="184" height="68" viewBox="0 0 184 68" fill="none" xmlns="http://www.w3.org/2000/svg">
<rect width="184" height="68" rx="34" fill="black"/>
<g clip-path="url(#clip0_244_673)">
<path d="M58.7176 49.7557C58.5837 49.8265 58.595 49.849 58.7232 49.7838C58.7628 49.7677 58.799 49.7444 58.8301 49.7152C58.8301 49.6915 58.8301 49.6915 58.7176 49.7557ZM58.9876 49.6094C58.9235 49.6623 58.9235 49.6623 59 49.6274C59.0283 49.6142 59.0541 49.5963 59.0765 49.5745C59.0765 49.5442 59.0585 49.5509 58.9876 49.6094ZM59.1631 49.5037C59.099 49.5565 59.099 49.5565 59.1755 49.5217C59.2039 49.5081 59.2298 49.4899 59.252 49.4677C59.252 49.4395 59.234 49.4452 59.1631 49.5037ZM59.3409 49.399C59.2767 49.4519 59.2768 49.4519 59.351 49.4159C59.3926 49.3934 59.4275 49.3698 59.4275 49.363C59.4275 49.3349 59.4095 49.3405 59.3409 49.399ZM59.5805 49.2404C59.4579 49.3225 59.4151 49.3754 59.5276 49.3169C59.603 49.2708 59.7312 49.1695 59.7087 49.1695C59.6604 49.1875 59.6199 49.2179 59.5794 49.2404H59.5805ZM48.8221 16.0124C48.74 16.018 48.4936 16.0405 48.2776 16.0585C43.1611 16.522 38.3742 19.276 35.3401 23.5184C33.6634 25.8452 32.5735 28.5426 32.1631 31.381C32.018 32.371 32 32.6635 32 34.0057C32 35.3467 32.018 35.6347 32.1631 36.6247C33.143 43.387 37.9535 49.0638 44.474 51.1675C45.6474 51.5422 46.877 51.8009 48.2776 51.9595C48.8221 52.018 51.1768 52.018 51.7213 51.9595C54.1423 51.6895 56.1864 51.0922 58.2091 50.0605C58.5196 49.903 58.5781 49.8614 58.5365 49.8265C57.5497 48.5222 56.5714 47.2115 55.6014 45.8947L52.7248 42.01L49.1214 36.6719C47.9228 34.8846 46.7119 33.1056 45.4887 31.3349C45.4764 31.3349 45.4606 33.7075 45.4539 36.601C45.4415 41.6692 45.4415 41.875 45.3774 41.992C45.3159 42.1334 45.2057 42.248 45.0669 42.3149C44.9555 42.3678 44.8554 42.379 44.3233 42.379H43.7146L43.556 42.28C43.4566 42.2163 43.3759 42.1274 43.322 42.0224L43.2455 41.8638L43.2511 34.8089L43.2635 27.754L43.3749 27.6134C43.446 27.527 43.5336 27.4555 43.6325 27.403C43.7799 27.3322 43.8384 27.3209 44.447 27.3209C45.1614 27.3209 45.2795 27.349 45.4674 27.5549C46.9271 29.726 48.3742 31.9056 49.8088 34.0934C52.1476 37.6394 55.3404 42.478 56.9097 44.8518L59.7639 49.1707L59.9045 49.0773C61.2762 48.1658 62.5191 47.0741 63.6001 45.8317C65.8676 43.2364 67.339 40.0425 67.838 36.6325C67.9831 35.6425 68.0011 35.3489 68.0011 34.0079C68.0011 32.6658 67.9831 32.3789 67.838 31.3889C66.8581 24.6265 62.0476 18.9498 55.5271 16.8449C54.3085 16.459 53.0542 16.1963 51.7831 16.0608C51.4422 16.0259 49.1158 15.9843 48.8232 16.0147L48.8221 16.0124ZM56.1875 26.899C56.2712 26.9401 56.3458 26.9975 56.4071 27.0679C56.4683 27.1382 56.5149 27.22 56.5441 27.3085C56.5745 27.403 56.5801 29.3594 56.5745 33.766L56.5621 40.093L55.4495 38.383L54.3301 36.6719V32.0785C54.3301 29.1007 54.3425 27.4312 54.3582 27.349C54.4133 27.1607 54.5396 27.0013 54.7104 26.9047C54.8499 26.8338 54.9039 26.8282 55.4608 26.8282C55.9816 26.8282 56.0705 26.8338 56.1875 26.899Z" fill="white"/>
</g>
<path d="M91.4219 26.0312V43H89.0547L80.4531 30.6016H80.3125V43H77.7344V26.0312H80.125L88.7266 38.4531H88.8906V26.0312H91.4219ZM100.164 43.2578C96.4141 43.2578 94.1172 40.6797 94.1172 36.7188C94.1172 32.8047 96.4609 30.1094 100 30.1094C102.906 30.1094 105.648 31.9141 105.648 36.5078V37.3984H96.6016C96.6719 39.8125 98.0898 41.1953 100.188 41.1953C101.617 41.1953 102.531 40.5859 102.953 39.8125H105.484C104.922 41.875 102.953 43.2578 100.164 43.2578ZM96.625 35.5234H103.188C103.188 33.5781 101.945 32.1719 100.023 32.1719C98.0195 32.1719 96.7188 33.7188 96.625 35.5234ZM109.82 30.2734L112.609 35.2188L115.422 30.2734H118.164L114.203 36.625L118.188 43H115.469L112.609 38.2422L109.773 43H107.031L110.969 36.625L107.055 30.2734H109.82ZM126.391 30.2734V32.2656H123.789V39.25C123.789 40.6797 124.516 40.9375 125.312 40.9609C125.664 40.9609 126.227 40.9141 126.578 40.8906V43.0703C126.227 43.1172 125.688 43.1641 125.008 43.1641C123.039 43.1641 121.281 42.0859 121.305 39.7656V32.2656H119.43V30.2734H121.305V27.2266H123.789V30.2734L126.391 30.2734ZM130.469 43.1641C129.555 43.1641 128.781 42.4141 128.805 41.5C128.781 40.5859 129.555 39.8359 130.469 39.8359C131.359 39.8359 132.133 40.5859 132.133 41.5C132.133 42.4141 131.359 43.1641 130.469 43.1641ZM135.156 30.2734H137.664V43.8203C137.664 46.3984 136.234 47.7812 133.609 47.7812C133.445 47.7812 133.281 47.7812 133.094 47.7578V45.625H133.492C134.664 45.625 135.156 44.9688 135.156 43.7969V30.2734ZM136.398 28.3047C135.531 28.3047 134.805 27.6484 134.805 26.8281C134.805 26.0078 135.531 25.3516 136.398 25.3516C137.242 25.3516 137.969 26.0078 137.969 26.8281C137.969 27.6484 137.242 28.3047 136.398 28.3047ZM147.859 33.7422C147.625 32.7344 146.828 32.0781 145.445 32.0781C144.016 32.0781 142.984 32.8281 143.008 33.7891C142.984 34.5391 143.594 35.0781 145 35.4062L147.016 35.875C149.359 36.3906 150.484 37.5156 150.508 39.3203C150.484 41.6172 148.562 43.2578 145.305 43.2578C142.258 43.2578 140.43 41.8984 140.125 39.5312H142.68C142.891 40.6797 143.781 41.2422 145.281 41.2422C146.898 41.2422 147.93 40.5859 147.953 39.5078C147.93 38.6875 147.32 38.1484 145.984 37.8438L143.992 37.4219C141.695 36.9062 140.5 35.6875 140.5 33.9297C140.5 31.6563 142.469 30.1094 145.422 30.1094C148.258 30.1094 150.016 31.5625 150.273 33.7422H147.859Z" fill="white"/>
<defs>
<clipPath id="clip0_244_673">
<rect width="36" height="36" fill="white" transform="translate(32 16)"/>
</clipPath>
</defs>
</svg>
