<svg width="171" height="68" viewBox="0 0 171 68" fill="none" xmlns="http://www.w3.org/2000/svg">
<rect width="171" height="68" rx="34" fill="#00D0FF"/>
<path d="M50 31.165C51.545 31.165 52.805 32.425 52.805 34C52.805 35.5 51.545 36.775 50 36.775C48.455 36.775 47.195 35.5 47.195 34C47.195 32.425 48.455 31.165 50 31.165ZM43.055 46C44 46.57 46.07 45.7 48.455 43.45C47.675 42.565 46.91 41.605 46.19 40.6C44.9812 40.4843 43.7795 40.3041 42.59 40.06C41.825 43.27 42.11 45.475 43.055 46ZM44.12 37.39L43.685 36.625C43.52 37.06 43.355 37.495 43.25 37.915C43.655 38.005 44.105 38.08 44.57 38.155L44.12 37.39ZM53.93 36.25L55.145 34L53.93 31.75C53.48 30.955 53 30.25 52.565 29.545C51.755 29.5 50.9 29.5 50 29.5C49.1 29.5 48.245 29.5 47.435 29.545C47 30.25 46.52 30.955 46.07 31.75L44.855 34L46.07 36.25C46.52 37.045 47 37.75 47.435 38.455C48.245 38.5 49.1 38.5 50 38.5C50.9 38.5 51.755 38.5 52.565 38.455C53 37.75 53.48 37.045 53.93 36.25ZM50 26.17C49.715 26.5 49.415 26.845 49.115 27.25H50.885C50.585 26.845 50.285 26.5 50 26.17ZM50 41.83C50.285 41.5 50.585 41.155 50.885 40.75H49.115C49.415 41.155 49.715 41.5 50 41.83ZM56.93 22C56 21.43 53.93 22.3 51.545 24.55C52.325 25.435 53.09 26.395 53.81 27.4C55.04 27.52 56.255 27.7 57.41 27.94C58.175 24.73 57.89 22.525 56.93 22ZM55.88 30.61L56.315 31.375C56.48 30.94 56.645 30.505 56.75 30.085C56.345 29.995 55.895 29.92 55.43 29.845L55.88 30.61ZM58.055 20.035C60.26 21.295 60.5 24.61 59.57 28.48C63.38 29.605 66.125 31.465 66.125 34C66.125 36.535 63.38 38.395 59.57 39.52C60.5 43.39 60.26 46.705 58.055 47.965C55.865 49.225 52.88 47.785 50 45.04C47.12 47.785 44.135 49.225 41.93 47.965C39.74 46.705 39.5 43.39 40.43 39.52C36.62 38.395 33.875 36.535 33.875 34C33.875 31.465 36.62 29.605 40.43 28.48C39.5 24.61 39.74 21.295 41.93 20.035C44.135 18.775 47.12 20.215 50 22.96C52.88 20.215 55.865 18.775 58.055 20.035ZM57.62 34C58.13 35.125 58.58 36.25 58.955 37.39C62.105 36.445 63.875 35.095 63.875 34C63.875 32.905 62.105 31.555 58.955 30.61C58.58 31.75 58.13 32.875 57.62 34ZM42.38 34C41.87 32.875 41.42 31.75 41.045 30.61C37.895 31.555 36.125 32.905 36.125 34C36.125 35.095 37.895 36.445 41.045 37.39C41.42 36.25 41.87 35.125 42.38 34ZM55.88 37.39L55.43 38.155C55.895 38.08 56.345 38.005 56.75 37.915C56.645 37.495 56.48 37.06 56.315 36.625L55.88 37.39ZM51.545 43.45C53.93 45.7 56 46.57 56.93 46C57.89 45.475 58.175 43.27 57.41 40.06C56.255 40.3 55.04 40.48 53.81 40.6C53.09 41.605 52.325 42.565 51.545 43.45ZM44.12 30.61L44.57 29.845C44.105 29.92 43.655 29.995 43.25 30.085C43.355 30.505 43.52 30.94 43.685 31.375L44.12 30.61ZM48.455 24.55C46.07 22.3 44 21.43 43.055 22C42.11 22.525 41.825 24.73 42.59 27.94C43.7795 27.6959 44.9812 27.5157 46.19 27.4C46.91 26.395 47.675 25.435 48.455 24.55Z" fill="white"/>
<path d="M77.7344 43V26.0312H83.7812C87.7188 26.0312 89.6641 28.2344 89.6641 31.3516C89.6641 33.6367 88.6328 35.3711 86.5703 36.1328L90.3203 43H87.3906L83.9453 36.6016H83.7812H80.3125V43H77.7344ZM80.3125 34.375H83.5234C86.0312 34.375 87.0625 33.2734 87.0625 31.3516C87.0625 29.4297 86.0312 28.2344 83.5234 28.2344H80.3125V34.375ZM97.6328 43.2578C93.8828 43.2578 91.5859 40.6797 91.5859 36.7188C91.5859 32.8047 93.9297 30.1094 97.4688 30.1094C100.375 30.1094 103.117 31.9141 103.117 36.5078V37.3984H94.0703C94.1406 39.8125 95.5586 41.1953 97.6562 41.1953C99.0859 41.1953 100 40.5859 100.422 39.8125H102.953C102.391 41.875 100.422 43.2578 97.6328 43.2578ZM94.0938 35.5234H100.656C100.656 33.5781 99.4141 32.1719 97.4922 32.1719C95.4883 32.1719 94.1875 33.7188 94.0938 35.5234ZM105.016 39.4141C105.016 36.5078 107.477 35.7578 109.773 35.5938C110.617 35.5352 112.527 35.4297 113.125 35.4062L113.102 34.3984C113.102 32.9688 112.234 32.125 110.523 32.125C109.047 32.125 108.156 32.8047 107.898 33.7422H105.414C105.648 31.6328 107.617 30.1094 110.617 30.1094C112.633 30.1094 115.609 30.8594 115.609 34.5391V43H113.172V41.2656H113.078C112.586 42.2266 111.414 43.2812 109.305 43.2812C106.891 43.2812 105.016 41.8984 105.016 39.4141ZM107.453 39.4375C107.453 40.6562 108.461 41.2891 109.867 41.2891C111.906 41.2891 113.125 39.9297 113.125 38.4062V37.2344L110.125 37.4453C108.484 37.5625 107.453 38.1719 107.453 39.4375ZM124.023 43.2578C120.32 43.2578 118.07 40.5156 118.07 36.6953C118.07 32.8047 120.391 30.1094 123.977 30.1094C126.883 30.1094 128.992 31.8203 129.25 34.3984H126.812C126.555 33.2031 125.594 32.1953 124.023 32.1953C121.961 32.1953 120.578 33.9062 120.578 36.625C120.578 39.4141 121.938 41.125 124.023 41.125C125.43 41.125 126.508 40.3516 126.812 38.9688H129.25C128.969 41.4297 127.023 43.2578 124.023 43.2578ZM137.57 30.2734V32.2656H134.969V39.25C134.969 40.6797 135.695 40.9375 136.492 40.9609C136.844 40.9609 137.406 40.9141 137.758 40.8906V43.0703C137.406 43.1172 136.867 43.1641 136.188 43.1641C134.219 43.1641 132.461 42.0859 132.484 39.7656V32.2656H130.609V30.2734H132.484V27.2266H134.969V30.2734H137.57Z" fill="white"/>
</svg>
