<svg width="178" height="68" viewBox="0 0 178 68" fill="none" xmlns="http://www.w3.org/2000/svg">
<rect width="178" height="68" rx="34" fill="#00D0FF"/>
<path d="M50 31.1648C51.545 31.1648 52.805 32.4248 52.805 33.9998C52.805 35.4998 51.545 36.7748 50 36.7748C48.455 36.7748 47.195 35.4998 47.195 33.9998C47.195 32.4248 48.455 31.1648 50 31.1648ZM43.055 45.9998C44 46.5698 46.07 45.6998 48.455 43.4498C47.675 42.5648 46.91 41.6048 46.19 40.5998C44.9812 40.4841 43.7795 40.3038 42.59 40.0598C41.825 43.2698 42.11 45.4748 43.055 45.9998ZM44.12 37.3898L43.685 36.6248C43.52 37.0598 43.355 37.4948 43.25 37.9148C43.655 38.0048 44.105 38.0798 44.57 38.1548L44.12 37.3898ZM53.93 36.2498L55.145 33.9998L53.93 31.7498C53.48 30.9548 53 30.2498 52.565 29.5448C51.755 29.4998 50.9 29.4998 50 29.4998C49.1 29.4998 48.245 29.4998 47.435 29.5448C47 30.2498 46.52 30.9548 46.07 31.7498L44.855 33.9998L46.07 36.2498C46.52 37.0448 47 37.7498 47.435 38.4548C48.245 38.4998 49.1 38.4998 50 38.4998C50.9 38.4998 51.755 38.4998 52.565 38.4548C53 37.7498 53.48 37.0448 53.93 36.2498ZM50 26.1698C49.715 26.4998 49.415 26.8448 49.115 27.2498H50.885C50.585 26.8448 50.285 26.4998 50 26.1698ZM50 41.8298C50.285 41.4998 50.585 41.1548 50.885 40.7498H49.115C49.415 41.1548 49.715 41.4998 50 41.8298ZM56.93 21.9998C56 21.4298 53.93 22.2998 51.545 24.5498C52.325 25.4348 53.09 26.3948 53.81 27.3998C55.04 27.5198 56.255 27.6998 57.41 27.9398C58.175 24.7298 57.89 22.5248 56.93 21.9998ZM55.88 30.6098L56.315 31.3748C56.48 30.9398 56.645 30.5048 56.75 30.0848C56.345 29.9948 55.895 29.9198 55.43 29.8448L55.88 30.6098ZM58.055 20.0348C60.26 21.2948 60.5 24.6098 59.57 28.4798C63.38 29.6048 66.125 31.4648 66.125 33.9998C66.125 36.5348 63.38 38.3948 59.57 39.5198C60.5 43.3898 60.26 46.7048 58.055 47.9648C55.865 49.2248 52.88 47.7848 50 45.0398C47.12 47.7848 44.135 49.2248 41.93 47.9648C39.74 46.7048 39.5 43.3898 40.43 39.5198C36.62 38.3948 33.875 36.5348 33.875 33.9998C33.875 31.4648 36.62 29.6048 40.43 28.4798C39.5 24.6098 39.74 21.2948 41.93 20.0348C44.135 18.7748 47.12 20.2148 50 22.9598C52.88 20.2148 55.865 18.7748 58.055 20.0348ZM57.62 33.9998C58.13 35.1248 58.58 36.2498 58.955 37.3898C62.105 36.4448 63.875 35.0948 63.875 33.9998C63.875 32.9048 62.105 31.5548 58.955 30.6098C58.58 31.7498 58.13 32.8748 57.62 33.9998ZM42.38 33.9998C41.87 32.8748 41.42 31.7498 41.045 30.6098C37.895 31.5548 36.125 32.9048 36.125 33.9998C36.125 35.0948 37.895 36.4448 41.045 37.3898C41.42 36.2498 41.87 35.1248 42.38 33.9998ZM55.88 37.3898L55.43 38.1548C55.895 38.0798 56.345 38.0048 56.75 37.9148C56.645 37.4948 56.48 37.0598 56.315 36.6248L55.88 37.3898ZM51.545 43.4498C53.93 45.6998 56 46.5698 56.93 45.9998C57.89 45.4748 58.175 43.2698 57.41 40.0598C56.255 40.2998 55.04 40.4798 53.81 40.5998C53.09 41.6048 52.325 42.5648 51.545 43.4498ZM44.12 30.6098L44.57 29.8448C44.105 29.9198 43.655 29.9948 43.25 30.0848C43.355 30.5048 43.52 30.9398 43.685 31.3748L44.12 30.6098ZM48.455 24.5498C46.07 22.2998 44 21.4298 43.055 21.9998C42.11 22.5248 41.825 24.7298 42.59 27.9398C43.7795 27.6957 44.9812 27.5154 46.19 27.3998C46.91 26.3948 47.675 25.4348 48.455 24.5498Z" fill="white"/>
<path d="M86.464 42L82.624 35.328H80.536V42H77.8V25.32H83.56C84.84 25.32 85.92 25.544 86.8 25.992C87.696 26.44 88.36 27.04 88.792 27.792C89.24 28.544 89.464 29.384 89.464 30.312C89.464 31.4 89.144 32.392 88.504 33.288C87.88 34.168 86.912 34.768 85.6 35.088L89.728 42H86.464ZM80.536 33.144H83.56C84.584 33.144 85.352 32.888 85.864 32.376C86.392 31.864 86.656 31.176 86.656 30.312C86.656 29.448 86.4 28.776 85.888 28.296C85.376 27.8 84.6 27.552 83.56 27.552H80.536V33.144ZM105.084 35.064C105.084 35.56 105.052 36.008 104.988 36.408H94.8841C94.9641 37.464 95.3561 38.312 96.0601 38.952C96.7641 39.592 97.6281 39.912 98.6521 39.912C100.124 39.912 101.164 39.296 101.772 38.064H104.724C104.324 39.28 103.596 40.28 102.54 41.064C101.5 41.832 100.204 42.216 98.6521 42.216C97.3881 42.216 96.2521 41.936 95.2441 41.376C94.2521 40.8 93.4681 40 92.8921 38.976C92.3321 37.936 92.0521 36.736 92.0521 35.376C92.0521 34.016 92.3241 32.824 92.8681 31.8C93.4281 30.76 94.2041 29.96 95.1961 29.4C96.2041 28.84 97.3561 28.56 98.6521 28.56C99.9001 28.56 101.012 28.832 101.988 29.376C102.964 29.92 103.724 30.688 104.268 31.68C104.812 32.656 105.084 33.784 105.084 35.064ZM102.228 34.2C102.212 33.192 101.852 32.384 101.148 31.776C100.444 31.168 99.5721 30.864 98.5321 30.864C97.5881 30.864 96.7801 31.168 96.1081 31.776C95.4361 32.368 95.0361 33.176 94.9081 34.2H102.228ZM106.865 35.328C106.865 34 107.137 32.824 107.681 31.8C108.241 30.776 108.993 29.984 109.937 29.424C110.897 28.848 111.953 28.56 113.105 28.56C114.145 28.56 115.049 28.768 115.817 29.184C116.601 29.584 117.225 30.088 117.689 30.696V28.776H120.449V42H117.689V40.032C117.225 40.656 116.593 41.176 115.793 41.592C114.993 42.008 114.081 42.216 113.057 42.216C111.921 42.216 110.881 41.928 109.937 41.352C108.993 40.76 108.241 39.944 107.681 38.904C107.137 37.848 106.865 36.656 106.865 35.328ZM117.689 35.376C117.689 34.464 117.497 33.672 117.113 33C116.745 32.328 116.257 31.816 115.649 31.464C115.041 31.112 114.385 30.936 113.681 30.936C112.977 30.936 112.321 31.112 111.713 31.464C111.105 31.8 110.609 32.304 110.225 32.976C109.857 33.632 109.673 34.416 109.673 35.328C109.673 36.24 109.857 37.04 110.225 37.728C110.609 38.416 111.105 38.944 111.713 39.312C112.337 39.664 112.993 39.84 113.681 39.84C114.385 39.84 115.041 39.664 115.649 39.312C116.257 38.96 116.745 38.448 117.113 37.776C117.497 37.088 117.689 36.288 117.689 35.376ZM123.13 35.376C123.13 34.016 123.402 32.824 123.946 31.8C124.506 30.76 125.274 29.96 126.25 29.4C127.226 28.84 128.346 28.56 129.61 28.56C131.21 28.56 132.53 28.944 133.57 29.712C134.626 30.464 135.338 31.544 135.706 32.952H132.754C132.514 32.296 132.13 31.784 131.602 31.416C131.074 31.048 130.41 30.864 129.61 30.864C128.49 30.864 127.594 31.264 126.922 32.064C126.266 32.848 125.938 33.952 125.938 35.376C125.938 36.8 126.266 37.912 126.922 38.712C127.594 39.512 128.49 39.912 129.61 39.912C131.194 39.912 132.242 39.216 132.754 37.824H135.706C135.322 39.168 134.602 40.24 133.546 41.04C132.49 41.824 131.178 42.216 129.61 42.216C128.346 42.216 127.226 41.936 126.25 41.376C125.274 40.8 124.506 40 123.946 38.976C123.402 37.936 123.13 36.736 123.13 35.376ZM141.625 31.008V38.328C141.625 38.824 141.737 39.184 141.961 39.408C142.201 39.616 142.601 39.72 143.161 39.72H144.841V42H142.681C141.449 42 140.505 41.712 139.849 41.136C139.193 40.56 138.865 39.624 138.865 38.328V31.008H137.305V28.776H138.865V25.488H141.625V28.776H144.841V31.008H141.625Z" fill="white"/>
</svg>
