<svg width="306" height="60" viewBox="0 0 306 60" fill="none" xmlns="http://www.w3.org/2000/svg">
<rect width="306" height="60" rx="30" fill="#0077FF"/>
<path d="M38.6 38.216C37.56 38.216 36.624 38.032 35.792 37.664C34.976 37.28 34.328 36.768 33.848 36.128C33.368 35.472 33.112 34.744 33.08 33.944H35.912C35.96 34.504 36.224 34.976 36.704 35.36C37.2 35.728 37.816 35.912 38.552 35.912C39.32 35.912 39.912 35.768 40.328 35.48C40.76 35.176 40.976 34.792 40.976 34.328C40.976 33.832 40.736 33.464 40.256 33.224C39.792 32.984 39.048 32.72 38.024 32.432C37.032 32.16 36.224 31.896 35.6 31.64C34.976 31.384 34.432 30.992 33.968 30.464C33.52 29.936 33.296 29.24 33.296 28.376C33.296 27.672 33.504 27.032 33.92 26.456C34.336 25.864 34.928 25.4 35.696 25.064C36.48 24.728 37.376 24.56 38.384 24.56C39.888 24.56 41.096 24.944 42.008 25.712C42.936 26.464 43.432 27.496 43.496 28.808H40.76C40.712 28.216 40.472 27.744 40.04 27.392C39.608 27.04 39.024 26.864 38.288 26.864C37.568 26.864 37.016 27 36.632 27.272C36.248 27.544 36.056 27.904 36.056 28.352C36.056 28.704 36.184 29 36.44 29.24C36.696 29.48 37.008 29.672 37.376 29.816C37.744 29.944 38.288 30.112 39.008 30.32C39.968 30.576 40.752 30.84 41.36 31.112C41.984 31.368 42.52 31.752 42.968 32.264C43.416 32.776 43.648 33.456 43.664 34.304C43.664 35.056 43.456 35.728 43.04 36.32C42.624 36.912 42.032 37.376 41.264 37.712C40.512 38.048 39.624 38.216 38.6 38.216ZM49.8123 27.008V34.328C49.8123 34.824 49.9243 35.184 50.1483 35.408C50.3883 35.616 50.7883 35.72 51.3483 35.72H53.0283V38H50.8683C49.6363 38 48.6923 37.712 48.0363 37.136C47.3803 36.56 47.0523 35.624 47.0523 34.328V27.008H45.4923V24.776H47.0523V21.488H49.8123V24.776H53.0283V27.008H49.8123ZM67.454 24.776L59.342 44.216H56.51L59.198 37.784L53.99 24.776H57.038L60.758 34.856L64.622 24.776H67.454ZM72.2548 20.24V38H69.5188V20.24H72.2548ZM87.9669 31.064C87.9669 31.56 87.9349 32.008 87.8709 32.408H77.7669C77.8469 33.464 78.2389 34.312 78.9429 34.952C79.6469 35.592 80.5109 35.912 81.5349 35.912C83.0069 35.912 84.0469 35.296 84.6549 34.064H87.6069C87.2069 35.28 86.4789 36.28 85.4229 37.064C84.3829 37.832 83.0869 38.216 81.5349 38.216C80.2709 38.216 79.1349 37.936 78.1269 37.376C77.1349 36.8 76.3509 36 75.7749 34.976C75.2149 33.936 74.9349 32.736 74.9349 31.376C74.9349 30.016 75.2069 28.824 75.7509 27.8C76.3109 26.76 77.0869 25.96 78.0789 25.4C79.0869 24.84 80.2389 24.56 81.5349 24.56C82.7829 24.56 83.8949 24.832 84.8709 25.376C85.8469 25.92 86.6069 26.688 87.1509 27.68C87.6949 28.656 87.9669 29.784 87.9669 31.064ZM85.1109 30.2C85.0949 29.192 84.7349 28.384 84.0309 27.776C83.3269 27.168 82.4549 26.864 81.4149 26.864C80.4709 26.864 79.6629 27.168 78.9909 27.776C78.3189 28.368 77.9189 29.176 77.7909 30.2H85.1109ZM89.7474 31.328C89.7474 30 90.0194 28.824 90.5634 27.8C91.1234 26.776 91.8754 25.984 92.8194 25.424C93.7794 24.848 94.8434 24.56 96.0114 24.56C96.8754 24.56 97.7234 24.752 98.5554 25.136C99.4034 25.504 100.075 26 100.571 26.624V20.24H103.331V38H100.571V36.008C100.123 36.648 99.4994 37.176 98.6994 37.592C97.9154 38.008 97.0114 38.216 95.9874 38.216C94.8354 38.216 93.7794 37.928 92.8194 37.352C91.8754 36.76 91.1234 35.944 90.5634 34.904C90.0194 33.848 89.7474 32.656 89.7474 31.328ZM100.571 31.376C100.571 30.464 100.379 29.672 99.9954 29C99.6274 28.328 99.1394 27.816 98.5314 27.464C97.9234 27.112 97.2674 26.936 96.5634 26.936C95.8594 26.936 95.2034 27.112 94.5954 27.464C93.9874 27.8 93.4914 28.304 93.1074 28.976C92.7394 29.632 92.5554 30.416 92.5554 31.328C92.5554 32.24 92.7394 33.04 93.1074 33.728C93.4914 34.416 93.9874 34.944 94.5954 35.312C95.2194 35.664 95.8754 35.84 96.5634 35.84C97.2674 35.84 97.9234 35.664 98.5314 35.312C99.1394 34.96 99.6274 34.448 99.9954 33.776C100.379 33.088 100.571 32.288 100.571 31.376ZM117.077 28.16V30.464H107.213V28.16H117.077ZM120.052 31.376C120.052 30.016 120.324 28.824 120.868 27.8C121.428 26.76 122.196 25.96 123.172 25.4C124.148 24.84 125.268 24.56 126.532 24.56C128.132 24.56 129.452 24.944 130.492 25.712C131.548 26.464 132.26 27.544 132.628 28.952H129.676C129.436 28.296 129.052 27.784 128.524 27.416C127.996 27.048 127.332 26.864 126.532 26.864C125.412 26.864 124.516 27.264 123.844 28.064C123.188 28.848 122.86 29.952 122.86 31.376C122.86 32.8 123.188 33.912 123.844 34.712C124.516 35.512 125.412 35.912 126.532 35.912C128.116 35.912 129.164 35.216 129.676 33.824H132.628C132.244 35.168 131.524 36.24 130.468 37.04C129.412 37.824 128.1 38.216 126.532 38.216C125.268 38.216 124.148 37.936 123.172 37.376C122.196 36.8 121.428 36 120.868 34.976C120.324 33.936 120.052 32.736 120.052 31.376ZM141.091 38.216C139.843 38.216 138.715 37.936 137.707 37.376C136.699 36.8 135.907 36 135.331 34.976C134.755 33.936 134.467 32.736 134.467 31.376C134.467 30.032 134.763 28.84 135.355 27.8C135.947 26.76 136.755 25.96 137.779 25.4C138.803 24.84 139.947 24.56 141.211 24.56C142.475 24.56 143.619 24.84 144.643 25.4C145.667 25.96 146.475 26.76 147.067 27.8C147.659 28.84 147.955 30.032 147.955 31.376C147.955 32.72 147.651 33.912 147.043 34.952C146.435 35.992 145.603 36.8 144.547 37.376C143.507 37.936 142.355 38.216 141.091 38.216ZM141.091 35.84C141.795 35.84 142.451 35.672 143.059 35.336C143.683 35 144.187 34.496 144.571 33.824C144.955 33.152 145.147 32.336 145.147 31.376C145.147 30.416 144.963 29.608 144.595 28.952C144.227 28.28 143.739 27.776 143.131 27.44C142.523 27.104 141.867 26.936 141.163 26.936C140.459 26.936 139.803 27.104 139.195 27.44C138.603 27.776 138.131 28.28 137.779 28.952C137.427 29.608 137.251 30.416 137.251 31.376C137.251 32.8 137.611 33.904 138.331 34.688C139.067 35.456 139.987 35.84 141.091 35.84ZM166.667 24.56C167.707 24.56 168.635 24.776 169.451 25.208C170.283 25.64 170.931 26.28 171.395 27.128C171.875 27.976 172.115 29 172.115 30.2V38H169.403V30.608C169.403 29.424 169.107 28.52 168.515 27.896C167.923 27.256 167.115 26.936 166.091 26.936C165.067 26.936 164.251 27.256 163.643 27.896C163.051 28.52 162.755 29.424 162.755 30.608V38H160.043V30.608C160.043 29.424 159.747 28.52 159.155 27.896C158.563 27.256 157.755 26.936 156.731 26.936C155.707 26.936 154.891 27.256 154.283 27.896C153.691 28.52 153.395 29.424 153.395 30.608V38H150.659V24.776H153.395V26.288C153.843 25.744 154.411 25.32 155.099 25.016C155.787 24.712 156.523 24.56 157.307 24.56C158.363 24.56 159.307 24.784 160.139 25.232C160.971 25.68 161.611 26.328 162.059 27.176C162.459 26.376 163.083 25.744 163.931 25.28C164.779 24.8 165.691 24.56 166.667 24.56ZM178.333 26.72C178.797 26.112 179.429 25.6 180.229 25.184C181.029 24.768 181.933 24.56 182.941 24.56C184.093 24.56 185.141 24.848 186.085 25.424C187.045 25.984 187.797 26.776 188.341 27.8C188.885 28.824 189.157 30 189.157 31.328C189.157 32.656 188.885 33.848 188.341 34.904C187.797 35.944 187.045 36.76 186.085 37.352C185.141 37.928 184.093 38.216 182.941 38.216C181.933 38.216 181.037 38.016 180.253 37.616C179.469 37.2 178.829 36.688 178.333 36.08V44.288H175.597V24.776H178.333V26.72ZM186.373 31.328C186.373 30.416 186.181 29.632 185.797 28.976C185.429 28.304 184.933 27.8 184.309 27.464C183.701 27.112 183.045 26.936 182.341 26.936C181.653 26.936 180.997 27.112 180.373 27.464C179.765 27.816 179.269 28.328 178.885 29C178.517 29.672 178.333 30.464 178.333 31.376C178.333 32.288 178.517 33.088 178.885 33.776C179.269 34.448 179.765 34.96 180.373 35.312C180.997 35.664 181.653 35.84 182.341 35.84C183.045 35.84 183.701 35.664 184.309 35.312C184.933 34.944 185.429 34.416 185.797 33.728C186.181 33.04 186.373 32.24 186.373 31.328ZM197.599 38.216C196.351 38.216 195.223 37.936 194.215 37.376C193.207 36.8 192.415 36 191.839 34.976C191.263 33.936 190.975 32.736 190.975 31.376C190.975 30.032 191.271 28.84 191.863 27.8C192.455 26.76 193.263 25.96 194.287 25.4C195.311 24.84 196.455 24.56 197.719 24.56C198.983 24.56 200.127 24.84 201.151 25.4C202.175 25.96 202.983 26.76 203.575 27.8C204.167 28.84 204.463 30.032 204.463 31.376C204.463 32.72 204.159 33.912 203.551 34.952C202.943 35.992 202.111 36.8 201.055 37.376C200.015 37.936 198.863 38.216 197.599 38.216ZM197.599 35.84C198.303 35.84 198.959 35.672 199.567 35.336C200.191 35 200.695 34.496 201.079 33.824C201.463 33.152 201.655 32.336 201.655 31.376C201.655 30.416 201.471 29.608 201.103 28.952C200.735 28.28 200.247 27.776 199.639 27.44C199.031 27.104 198.375 26.936 197.671 26.936C196.967 26.936 196.311 27.104 195.703 27.44C195.111 27.776 194.639 28.28 194.287 28.952C193.935 29.608 193.759 30.416 193.759 31.376C193.759 32.8 194.119 33.904 194.839 34.688C195.575 35.456 196.495 35.84 197.599 35.84ZM213.839 24.56C214.879 24.56 215.807 24.776 216.623 25.208C217.455 25.64 218.103 26.28 218.567 27.128C219.031 27.976 219.263 29 219.263 30.2V38H216.551V30.608C216.551 29.424 216.255 28.52 215.663 27.896C215.071 27.256 214.263 26.936 213.239 26.936C212.215 26.936 211.399 27.256 210.791 27.896C210.199 28.52 209.903 29.424 209.903 30.608V38H207.167V24.776H209.903V26.288C210.351 25.744 210.919 25.32 211.607 25.016C212.311 24.712 213.055 24.56 213.839 24.56ZM234.873 31.064C234.873 31.56 234.841 32.008 234.777 32.408H224.673C224.753 33.464 225.145 34.312 225.849 34.952C226.553 35.592 227.417 35.912 228.441 35.912C229.913 35.912 230.953 35.296 231.561 34.064H234.513C234.113 35.28 233.385 36.28 232.329 37.064C231.289 37.832 229.993 38.216 228.441 38.216C227.177 38.216 226.041 37.936 225.033 37.376C224.041 36.8 223.257 36 222.681 34.976C222.121 33.936 221.841 32.736 221.841 31.376C221.841 30.016 222.113 28.824 222.657 27.8C223.217 26.76 223.993 25.96 224.985 25.4C225.993 24.84 227.145 24.56 228.441 24.56C229.689 24.56 230.801 24.832 231.777 25.376C232.753 25.92 233.513 26.688 234.057 27.68C234.601 28.656 234.873 29.784 234.873 31.064ZM232.017 30.2C232.001 29.192 231.641 28.384 230.937 27.776C230.233 27.168 229.361 26.864 228.321 26.864C227.377 26.864 226.569 27.168 225.897 27.776C225.225 28.368 224.825 29.176 224.697 30.2H232.017ZM244.238 24.56C245.278 24.56 246.206 24.776 247.022 25.208C247.854 25.64 248.502 26.28 248.966 27.128C249.43 27.976 249.662 29 249.662 30.2V38H246.95V30.608C246.95 29.424 246.654 28.52 246.062 27.896C245.47 27.256 244.662 26.936 243.638 26.936C242.614 26.936 241.798 27.256 241.19 27.896C240.598 28.52 240.302 29.424 240.302 30.608V38H237.566V24.776H240.302V26.288C240.75 25.744 241.318 25.32 242.006 25.016C242.71 24.712 243.454 24.56 244.238 24.56ZM256.344 27.008V34.328C256.344 34.824 256.456 35.184 256.68 35.408C256.92 35.616 257.32 35.72 257.88 35.72H259.56V38H257.4C256.168 38 255.224 37.712 254.568 37.136C253.912 36.56 253.584 35.624 253.584 34.328V27.008H252.024V24.776H253.584V21.488H256.344V24.776H259.56V27.008H256.344ZM266.881 38.216C265.841 38.216 264.905 38.032 264.073 37.664C263.257 37.28 262.609 36.768 262.129 36.128C261.649 35.472 261.393 34.744 261.361 33.944H264.193C264.241 34.504 264.505 34.976 264.985 35.36C265.481 35.728 266.097 35.912 266.833 35.912C267.601 35.912 268.193 35.768 268.609 35.48C269.041 35.176 269.257 34.792 269.257 34.328C269.257 33.832 269.017 33.464 268.537 33.224C268.073 32.984 267.329 32.72 266.305 32.432C265.313 32.16 264.505 31.896 263.881 31.64C263.257 31.384 262.713 30.992 262.249 30.464C261.801 29.936 261.577 29.24 261.577 28.376C261.577 27.672 261.785 27.032 262.201 26.456C262.617 25.864 263.209 25.4 263.977 25.064C264.761 24.728 265.657 24.56 266.665 24.56C268.169 24.56 269.377 24.944 270.289 25.712C271.217 26.464 271.713 27.496 271.777 28.808H269.041C268.993 28.216 268.753 27.744 268.321 27.392C267.889 27.04 267.305 26.864 266.569 26.864C265.849 26.864 265.297 27 264.913 27.272C264.529 27.544 264.337 27.904 264.337 28.352C264.337 28.704 264.465 29 264.721 29.24C264.977 29.48 265.289 29.672 265.657 29.816C266.025 29.944 266.569 30.112 267.289 30.32C268.249 30.576 269.033 30.84 269.641 31.112C270.265 31.368 270.801 31.752 271.249 32.264C271.697 32.776 271.929 33.456 271.945 34.304C271.945 35.056 271.737 35.728 271.321 36.32C270.905 36.912 270.313 37.376 269.545 37.712C268.793 38.048 267.905 38.216 266.881 38.216Z" fill="white"/>
</svg>
