<svg width="249" height="68" viewBox="0 0 249 68" fill="none" xmlns="http://www.w3.org/2000/svg">
<rect width="249" height="68" rx="34" fill="#0EA5E9"/>
<g clip-path="url(#clip0_1375_82840)">
<path d="M50 23.1992C45.2 23.1992 42.2 25.5992 41 30.3992C42.8 27.9992 44.9 27.0992 47.3 27.6992C48.6695 28.0412 49.6475 29.0342 50.732 30.1352C52.4975 31.9262 54.539 33.9992 59 33.9992C63.8 33.9992 66.8 31.5992 68 26.7992C66.2 29.1992 64.1 30.0992 61.7 29.4992C60.3305 29.1572 59.3525 28.1642 58.268 27.0632C56.504 25.2722 54.4625 23.1992 50 23.1992ZM41 33.9992C36.2 33.9992 33.2 36.3992 32 41.1992C33.8 38.7992 35.9 37.8992 38.3 38.4992C39.6695 38.8412 40.6475 39.8342 41.732 40.9352C43.4975 42.7262 45.539 44.7992 50 44.7992C54.8 44.7992 57.8 42.3992 59 37.5992C57.2 39.9992 55.1 40.8992 52.7 40.2992C51.3305 39.9572 50.3525 38.9642 49.268 37.8632C47.504 36.0722 45.4625 33.9992 41 33.9992Z" fill="white"/>
</g>
<path d="M88.576 25.32V27.552H84.136V42H81.4V27.552H76.936V25.32H88.576ZM90.4349 35.328C90.4349 34 90.7069 32.824 91.2509 31.8C91.8109 30.776 92.5629 29.984 93.5069 29.424C94.4669 28.848 95.5229 28.56 96.6749 28.56C97.7149 28.56 98.6189 28.768 99.3869 29.184C100.171 29.584 100.795 30.088 101.259 30.696V28.776H104.019V42H101.259V40.032C100.795 40.656 100.163 41.176 99.3629 41.592C98.5629 42.008 97.6509 42.216 96.6269 42.216C95.4909 42.216 94.4509 41.928 93.5069 41.352C92.5629 40.76 91.8109 39.944 91.2509 38.904C90.7069 37.848 90.4349 36.656 90.4349 35.328ZM101.259 35.376C101.259 34.464 101.067 33.672 100.683 33C100.315 32.328 99.8269 31.816 99.2189 31.464C98.6109 31.112 97.9549 30.936 97.2509 30.936C96.5469 30.936 95.8909 31.112 95.2829 31.464C94.6749 31.8 94.1789 32.304 93.7949 32.976C93.4269 33.632 93.2429 34.416 93.2429 35.328C93.2429 36.24 93.4269 37.04 93.7949 37.728C94.1789 38.416 94.6749 38.944 95.2829 39.312C95.9069 39.664 96.5629 39.84 97.2509 39.84C97.9549 39.84 98.6109 39.664 99.2189 39.312C99.8269 38.96 100.315 38.448 100.683 37.776C101.067 37.088 101.259 36.288 101.259 35.376ZM109.005 27.024C108.509 27.024 108.093 26.856 107.757 26.52C107.421 26.184 107.253 25.768 107.253 25.272C107.253 24.776 107.421 24.36 107.757 24.024C108.093 23.688 108.509 23.52 109.005 23.52C109.485 23.52 109.893 23.688 110.229 24.024C110.565 24.36 110.733 24.776 110.733 25.272C110.733 25.768 110.565 26.184 110.229 26.52C109.893 26.856 109.485 27.024 109.005 27.024ZM110.349 28.776V42H107.613V28.776H110.349ZM116.677 24.24V42H113.941V24.24H116.677ZM138.029 28.776L133.925 42H131.045L128.381 32.232L125.717 42H122.837L118.709 28.776H121.493L124.253 39.408L127.061 28.776H129.917L132.605 39.36L135.341 28.776H138.029ZM141.465 27.024C140.969 27.024 140.553 26.856 140.217 26.52C139.881 26.184 139.713 25.768 139.713 25.272C139.713 24.776 139.881 24.36 140.217 24.024C140.553 23.688 140.969 23.52 141.465 23.52C141.945 23.52 142.353 23.688 142.689 24.024C143.025 24.36 143.193 24.776 143.193 25.272C143.193 25.768 143.025 26.184 142.689 26.52C142.353 26.856 141.945 27.024 141.465 27.024ZM142.809 28.776V42H140.073V28.776H142.809ZM153.074 28.56C154.114 28.56 155.042 28.776 155.858 29.208C156.69 29.64 157.338 30.28 157.802 31.128C158.266 31.976 158.498 33 158.498 34.2V42H155.786V34.608C155.786 33.424 155.49 32.52 154.898 31.896C154.306 31.256 153.498 30.936 152.474 30.936C151.45 30.936 150.634 31.256 150.026 31.896C149.434 32.52 149.138 33.424 149.138 34.608V42H146.402V28.776H149.138V30.288C149.586 29.744 150.154 29.32 150.842 29.016C151.546 28.712 152.29 28.56 153.074 28.56ZM161.076 35.328C161.076 34 161.348 32.824 161.892 31.8C162.452 30.776 163.204 29.984 164.148 29.424C165.108 28.848 166.172 28.56 167.34 28.56C168.204 28.56 169.052 28.752 169.884 29.136C170.732 29.504 171.404 30 171.9 30.624V24.24H174.66V42H171.9V40.008C171.452 40.648 170.828 41.176 170.028 41.592C169.244 42.008 168.34 42.216 167.316 42.216C166.164 42.216 165.108 41.928 164.148 41.352C163.204 40.76 162.452 39.944 161.892 38.904C161.348 37.848 161.076 36.656 161.076 35.328ZM171.9 35.376C171.9 34.464 171.708 33.672 171.324 33C170.956 32.328 170.468 31.816 169.86 31.464C169.252 31.112 168.596 30.936 167.892 30.936C167.188 30.936 166.532 31.112 165.924 31.464C165.316 31.8 164.82 32.304 164.436 32.976C164.068 33.632 163.884 34.416 163.884 35.328C163.884 36.24 164.068 37.04 164.436 37.728C164.82 38.416 165.316 38.944 165.924 39.312C166.548 39.664 167.204 39.84 167.892 39.84C168.596 39.84 169.252 39.664 169.86 39.312C170.468 38.96 170.956 38.448 171.324 37.776C171.708 37.088 171.9 36.288 171.9 35.376ZM177.341 35.376C177.341 34.016 177.613 32.824 178.157 31.8C178.717 30.76 179.485 29.96 180.461 29.4C181.437 28.84 182.557 28.56 183.821 28.56C185.421 28.56 186.741 28.944 187.781 29.712C188.837 30.464 189.549 31.544 189.917 32.952H186.965C186.725 32.296 186.341 31.784 185.813 31.416C185.285 31.048 184.621 30.864 183.821 30.864C182.701 30.864 181.805 31.264 181.133 32.064C180.477 32.848 180.149 33.952 180.149 35.376C180.149 36.8 180.477 37.912 181.133 38.712C181.805 39.512 182.701 39.912 183.821 39.912C185.405 39.912 186.453 39.216 186.965 37.824H189.917C189.533 39.168 188.813 40.24 187.757 41.04C186.701 41.824 185.389 42.216 183.821 42.216C182.557 42.216 181.437 41.936 180.461 41.376C179.485 40.8 178.717 40 178.157 38.976C177.613 37.936 177.341 36.736 177.341 35.376ZM197.444 42.216C196.404 42.216 195.468 42.032 194.636 41.664C193.82 41.28 193.172 40.768 192.692 40.128C192.212 39.472 191.956 38.744 191.924 37.944H194.756C194.804 38.504 195.068 38.976 195.548 39.36C196.044 39.728 196.66 39.912 197.396 39.912C198.164 39.912 198.756 39.768 199.172 39.48C199.604 39.176 199.82 38.792 199.82 38.328C199.82 37.832 199.58 37.464 199.1 37.224C198.636 36.984 197.892 36.72 196.868 36.432C195.876 36.16 195.068 35.896 194.444 35.64C193.82 35.384 193.276 34.992 192.812 34.464C192.364 33.936 192.14 33.24 192.14 32.376C192.14 31.672 192.348 31.032 192.764 30.456C193.18 29.864 193.772 29.4 194.54 29.064C195.324 28.728 196.22 28.56 197.228 28.56C198.732 28.56 199.94 28.944 200.852 29.712C201.78 30.464 202.276 31.496 202.34 32.808H199.604C199.556 32.216 199.316 31.744 198.884 31.392C198.452 31.04 197.868 30.864 197.132 30.864C196.412 30.864 195.86 31 195.476 31.272C195.092 31.544 194.9 31.904 194.9 32.352C194.9 32.704 195.028 33 195.284 33.24C195.54 33.48 195.852 33.672 196.22 33.816C196.588 33.944 197.132 34.112 197.852 34.32C198.812 34.576 199.596 34.84 200.204 35.112C200.828 35.368 201.364 35.752 201.812 36.264C202.26 36.776 202.492 37.456 202.508 38.304C202.508 39.056 202.3 39.728 201.884 40.32C201.468 40.912 200.876 41.376 200.108 41.712C199.356 42.048 198.468 42.216 197.444 42.216ZM210.264 42.216C209.224 42.216 208.288 42.032 207.456 41.664C206.64 41.28 205.992 40.768 205.512 40.128C205.032 39.472 204.776 38.744 204.744 37.944H207.576C207.624 38.504 207.888 38.976 208.368 39.36C208.864 39.728 209.48 39.912 210.216 39.912C210.984 39.912 211.576 39.768 211.992 39.48C212.424 39.176 212.64 38.792 212.64 38.328C212.64 37.832 212.4 37.464 211.92 37.224C211.456 36.984 210.712 36.72 209.688 36.432C208.696 36.16 207.888 35.896 207.264 35.64C206.64 35.384 206.096 34.992 205.632 34.464C205.184 33.936 204.96 33.24 204.96 32.376C204.96 31.672 205.168 31.032 205.584 30.456C206 29.864 206.592 29.4 207.36 29.064C208.144 28.728 209.04 28.56 210.048 28.56C211.552 28.56 212.76 28.944 213.672 29.712C214.6 30.464 215.096 31.496 215.16 32.808H212.424C212.376 32.216 212.136 31.744 211.704 31.392C211.272 31.04 210.688 30.864 209.952 30.864C209.232 30.864 208.68 31 208.296 31.272C207.912 31.544 207.72 31.904 207.72 32.352C207.72 32.704 207.848 33 208.104 33.24C208.36 33.48 208.672 33.672 209.04 33.816C209.408 33.944 209.952 34.112 210.672 34.32C211.632 34.576 212.416 34.84 213.024 35.112C213.648 35.368 214.184 35.752 214.632 36.264C215.08 36.776 215.312 37.456 215.328 38.304C215.328 39.056 215.12 39.728 214.704 40.32C214.288 40.912 213.696 41.376 212.928 41.712C212.176 42.048 211.288 42.216 210.264 42.216Z" fill="white"/>
<defs>
<clipPath id="clip0_1375_82840">
<rect width="36" height="36" fill="white" transform="translate(32 16)"/>
</clipPath>
</defs>
</svg>
