<svg width="236" height="68" viewBox="0 0 236 68" fill="none" xmlns="http://www.w3.org/2000/svg">
<rect width="236" height="68" rx="34" fill="#0EA5E9"/>
<g clip-path="url(#clip0_244_680)">
<path d="M50.0015 23.2C45.2015 23.2 42.2015 25.6 41.0015 30.4C42.8015 28 44.9015 27.1 47.3015 27.7C48.671 28.042 49.649 29.035 50.7335 30.136C52.499 31.927 54.5405 34 59.0015 34C63.8015 34 66.8015 31.6 68.0015 26.8C66.2015 29.2 64.1015 30.1 61.7015 29.5C60.332 29.158 59.354 28.165 58.2695 27.064C56.5055 25.273 54.464 23.2 50.0015 23.2ZM41.0015 34C36.2015 34 33.2015 36.4 32.0015 41.1999C33.8015 38.7999 35.9015 37.9 38.3015 38.5C39.671 38.842 40.649 39.835 41.7335 40.936C43.499 42.727 45.5405 44.8 50.0015 44.8C54.8015 44.8 57.8015 42.4 59.0015 37.6C57.2015 40 55.1015 40.9 52.7015 40.3C51.332 39.958 50.354 38.965 49.2695 37.864C47.5055 36.073 45.464 34 41.0015 34Z" fill="white"/>
</g>
<path d="M76.8906 28.2578V26.0312H90.0391V28.2578H84.7656V43H82.1875V28.2578H76.8906ZM90.1328 39.4141C90.1328 36.5078 92.5938 35.7578 94.8906 35.5938C95.7344 35.5352 97.6445 35.4297 98.2422 35.4062L98.2188 34.3984C98.2188 32.9688 97.3516 32.125 95.6406 32.125C94.1641 32.125 93.2734 32.8047 93.0156 33.7422H90.5312C90.7656 31.6328 92.7344 30.1094 95.7344 30.1094C97.75 30.1094 100.727 30.8594 100.727 34.5391V43H98.2891V41.2656H98.1953C97.7031 42.2266 96.5312 43.2812 94.4219 43.2812C92.0078 43.2812 90.1328 41.8984 90.1328 39.4141ZM92.5703 39.4375C92.5703 40.6562 93.5781 41.2891 94.9844 41.2891C97.0234 41.2891 98.2422 39.9297 98.2422 38.4062V37.2344L95.2422 37.4453C93.6016 37.5625 92.5703 38.1719 92.5703 39.4375ZM103.75 43V30.2734H106.258V43H103.75ZM105.016 28.3047C104.148 28.3047 103.422 27.6484 103.422 26.8281C103.422 26.0078 104.148 25.3516 105.016 25.3516C105.859 25.3516 106.586 26.0078 106.586 26.8281C106.586 27.6484 105.859 28.3047 105.016 28.3047ZM111.812 26.0312V43H109.305V26.0312H111.812ZM117.602 43L113.875 30.2734H116.453L118.938 39.6016H119.078L121.562 30.2734H124.141L126.602 39.5547H126.742L129.203 30.2734H131.781L128.055 43H125.5L122.922 33.8359H122.734L120.18 43H117.602ZM133.844 43V30.2734H136.352V43H133.844ZM135.109 28.3047C134.242 28.3047 133.516 27.6484 133.516 26.8281C133.516 26.0078 134.242 25.3516 135.109 25.3516C135.953 25.3516 136.68 26.0078 136.68 26.8281C136.68 27.6484 135.953 28.3047 135.109 28.3047ZM141.906 35.4531V43H139.398V30.2734H141.812V32.3594H141.953C142.562 31 143.805 30.1094 145.703 30.1094C148.328 30.1094 150.039 31.75 150.039 34.9141V43H147.555V35.2188C147.555 33.3672 146.547 32.2656 144.859 32.2656C143.148 32.2656 141.906 33.4141 141.906 35.4531ZM157.844 43.2578C154.773 43.2578 152.523 40.7734 152.523 36.6719C152.523 32.5234 154.797 30.1094 157.867 30.1094C160.234 30.1094 161.102 31.5391 161.547 32.3359H161.664V26.0312H164.172V43H161.734V41.0078H161.547C161.078 41.8516 160.164 43.2578 157.844 43.2578ZM158.406 41.125C160.539 41.125 161.734 39.2969 161.734 36.625C161.734 33.9766 160.562 32.2422 158.406 32.2422C156.18 32.2422 155.078 34.1172 155.078 36.625C155.078 39.1797 156.227 41.125 158.406 41.125ZM172.82 43.2578C169.117 43.2578 166.867 40.5156 166.867 36.6953C166.867 32.8047 169.188 30.1094 172.773 30.1094C175.68 30.1094 177.789 31.8203 178.047 34.3984H175.609C175.352 33.2031 174.391 32.1953 172.82 32.1953C170.758 32.1953 169.375 33.9062 169.375 36.625C169.375 39.4141 170.734 41.125 172.82 41.125C174.227 41.125 175.305 40.3516 175.609 38.9688H178.047C177.766 41.4297 175.82 43.2578 172.82 43.2578ZM187.562 33.7422C187.328 32.7344 186.531 32.0781 185.148 32.0781C183.719 32.0781 182.688 32.8281 182.711 33.7891C182.688 34.5391 183.297 35.0781 184.703 35.4062L186.719 35.875C189.062 36.3906 190.188 37.5156 190.211 39.3203C190.188 41.6172 188.266 43.2578 185.008 43.2578C181.961 43.2578 180.133 41.8984 179.828 39.5312H182.383C182.594 40.6797 183.484 41.2422 184.984 41.2422C186.602 41.2422 187.633 40.5859 187.656 39.5078C187.633 38.6875 187.023 38.1484 185.688 37.8438L183.695 37.4219C181.398 36.9062 180.203 35.6875 180.203 33.9297C180.203 31.6562 182.172 30.1094 185.125 30.1094C187.961 30.1094 189.719 31.5625 189.977 33.7422H187.562ZM199.797 33.7422C199.562 32.7344 198.766 32.0781 197.383 32.0781C195.953 32.0781 194.922 32.8281 194.945 33.7891C194.922 34.5391 195.531 35.0781 196.938 35.4062L198.953 35.875C201.297 36.3906 202.422 37.5156 202.445 39.3203C202.422 41.6172 200.5 43.2578 197.242 43.2578C194.195 43.2578 192.367 41.8984 192.062 39.5312H194.617C194.828 40.6797 195.719 41.2422 197.219 41.2422C198.836 41.2422 199.867 40.5859 199.891 39.5078C199.867 38.6875 199.258 38.1484 197.922 37.8438L195.93 37.4219C193.633 36.9062 192.438 35.6875 192.438 33.9297C192.438 31.6562 194.406 30.1094 197.359 30.1094C200.195 30.1094 201.953 31.5625 202.211 33.7422H199.797Z" fill="white"/>
<defs>
<clipPath id="clip0_244_680">
<rect width="36" height="36" fill="white" transform="translate(32 16)"/>
</clipPath>
</defs>
</svg>
