<svg width="225" height="68" viewBox="0 0 225 68" fill="none" xmlns="http://www.w3.org/2000/svg">
<rect width="225" height="68" rx="12" fill="white"/>
<g clip-path="url(#clip0_244_684)">
<path d="M38.3759 29.2188H66.4081V49.9384H38.3759V29.2188Z" fill="white"/>
<path d="M32.4219 33.9747V51.5529H67.5781V16.3966H32.4219V33.9747ZM60.7522 32.5685C61.5942 32.7639 62.3595 33.2043 62.9516 33.8341C63.2775 34.1734 63.5608 34.5512 63.7953 34.9591C63.7953 35.0041 62.2766 36.0307 61.3512 36.6044C61.3175 36.6269 61.1825 36.4807 61.0334 36.2585C60.8645 35.967 60.6245 35.7231 60.3358 35.5495C60.0471 35.3759 59.7191 35.2782 59.3825 35.2657C58.3166 35.1925 57.6303 35.7522 57.6359 36.6719C57.6271 36.9009 57.6796 37.1281 57.7878 37.33C58.0212 37.8166 58.4572 38.1063 59.8241 38.6969C62.3412 39.7797 63.4184 40.4941 64.0878 41.5094C64.8359 42.6344 65.0019 44.4513 64.4956 45.7957C63.9331 47.2582 62.555 48.251 60.6059 48.58C59.7157 48.682 58.8163 48.6726 57.9284 48.5519C56.5677 48.3276 55.3142 47.6743 54.3509 46.6872C54.0275 46.33 53.3975 45.3991 53.4369 45.3316C53.5395 45.2554 53.6476 45.1868 53.7603 45.1263L55.0625 44.4063L56.0722 43.8213L56.2831 44.1335C56.6391 44.6427 57.0922 45.0766 57.6163 45.4104C58.7413 46.001 60.2769 45.9194 61.0362 45.236C61.2912 44.9855 61.4503 44.6536 61.4857 44.298C61.5212 43.9424 61.4308 43.5856 61.2303 43.2897C60.9491 42.8988 60.3866 42.5697 58.8144 41.8835C57.0003 41.1016 56.2184 40.6179 55.5041 39.8472C55.0581 39.3387 54.7288 38.7387 54.5394 38.0894C54.3981 37.3476 54.3772 36.5879 54.4775 35.8394C54.8516 34.0872 56.165 32.8638 58.0831 32.501C58.9714 32.3911 59.8712 32.4157 60.7522 32.5741V32.5685ZM52.5003 34.0422V35.4822H47.9356V48.4844H44.6984V35.4794H40.1225V34.0732C40.1082 33.5882 40.1195 33.1029 40.1562 32.6191C40.1788 32.5938 42.9688 32.5938 46.3438 32.5938H52.4834L52.5003 34.0422Z" fill="#007ACC"/>
</g>
<path d="M76.8906 28.2578V26.0312H90.0391V28.2578H84.7656V43H82.1875V28.2578H76.8906ZM92.5469 47.7812C92.0312 47.7812 91.5391 47.7578 91.2109 47.7109V45.625C91.4922 45.6484 91.9844 45.6719 92.3359 45.6719C93.1094 45.6719 93.7656 45.6016 94.3516 44.0078L94.6562 43.1641L89.9922 30.2734H92.6641L95.875 40.1406H96.0156L99.2266 30.2734H101.922L96.6719 44.6875C95.9453 46.7031 94.6328 47.7812 92.5469 47.7812ZM103.961 47.7812V30.2734H106.398V32.3359H106.609C107.055 31.5391 107.922 30.1094 110.266 30.1094C113.336 30.1094 115.609 32.5234 115.609 36.6719C115.609 40.7734 113.383 43.2578 110.289 43.2578C107.969 43.2578 107.055 41.8516 106.609 41.0078H106.469V47.7812H103.961ZM106.422 36.625C106.422 39.2969 107.594 41.125 109.727 41.125C111.93 41.125 113.078 39.1797 113.078 36.625C113.078 34.1172 111.953 32.2422 109.727 32.2422C107.57 32.2422 106.422 33.9766 106.422 36.625ZM123.578 43.2578C119.828 43.2578 117.531 40.6797 117.531 36.7188C117.531 32.8047 119.875 30.1094 123.414 30.1094C126.32 30.1094 129.062 31.9141 129.062 36.5078V37.3984H120.016C120.086 39.8125 121.504 41.1953 123.602 41.1953C125.031 41.1953 125.945 40.5859 126.367 39.8125H128.898C128.336 41.875 126.367 43.2578 123.578 43.2578ZM120.039 35.5234H126.602C126.602 33.5781 125.359 32.1719 123.438 32.1719C121.434 32.1719 120.133 33.7188 120.039 35.5234ZM138.695 33.7422C138.461 32.7344 137.664 32.0781 136.281 32.0781C134.852 32.0781 133.82 32.8281 133.844 33.7891C133.82 34.5391 134.43 35.0781 135.836 35.4062L137.852 35.875C140.195 36.3906 141.32 37.5156 141.344 39.3203C141.32 41.6172 139.398 43.2578 136.141 43.2578C133.094 43.2578 131.266 41.8984 130.961 39.5312H133.516C133.727 40.6797 134.617 41.2422 136.117 41.2422C137.734 41.2422 138.766 40.5859 138.789 39.5078C138.766 38.6875 138.156 38.1484 136.82 37.8438L134.828 37.4219C132.531 36.9062 131.336 35.6875 131.336 33.9297C131.336 31.6562 133.305 30.1094 136.258 30.1094C139.094 30.1094 140.852 31.5625 141.109 33.7422H138.695ZM149.172 43.2578C145.469 43.2578 143.219 40.5156 143.219 36.6953C143.219 32.8047 145.539 30.1094 149.125 30.1094C152.031 30.1094 154.141 31.8203 154.398 34.3984H151.961C151.703 33.2031 150.742 32.1953 149.172 32.1953C147.109 32.1953 145.727 33.9062 145.727 36.625C145.727 39.4141 147.086 41.125 149.172 41.125C150.578 41.125 151.656 40.3516 151.961 38.9688H154.398C154.117 41.4297 152.172 43.2578 149.172 43.2578ZM156.766 43V30.2734H159.18V32.2891H159.32C159.789 30.9297 161.055 30.0859 162.555 30.0859C162.859 30.0859 163.352 30.1094 163.609 30.1328V32.5234C163.398 32.4766 162.812 32.3828 162.297 32.3828C160.562 32.3828 159.273 33.5781 159.273 35.2422V43H156.766ZM165.484 43V30.2734H167.992V43H165.484ZM166.75 28.3047C165.883 28.3047 165.156 27.6484 165.156 26.8281C165.156 26.0078 165.883 25.3516 166.75 25.3516C167.594 25.3516 168.32 26.0078 168.32 26.8281C168.32 27.6484 167.594 28.3047 166.75 28.3047ZM171.039 47.7812V30.2734H173.477V32.3359H173.688C174.133 31.5391 175 30.1094 177.344 30.1094C180.414 30.1094 182.688 32.5234 182.688 36.6719C182.688 40.7734 180.461 43.2578 177.367 43.2578C175.047 43.2578 174.133 41.8516 173.688 41.0078H173.547V47.7812H171.039ZM173.5 36.625C173.5 39.2969 174.672 41.125 176.805 41.125C179.008 41.125 180.156 39.1797 180.156 36.625C180.156 34.1172 179.031 32.2422 176.805 32.2422C174.648 32.2422 173.5 33.9766 173.5 36.625ZM191.125 30.2734V32.2656H188.523V39.25C188.523 40.6797 189.25 40.9375 190.047 40.9609C190.398 40.9609 190.961 40.9141 191.312 40.8906V43.0703C190.961 43.1172 190.422 43.1641 189.742 43.1641C187.773 43.1641 186.016 42.0859 186.039 39.7656V32.2656H184.164V30.2734H186.039V27.2266H188.523V30.2734H191.125Z" fill="#007ACC"/>
<defs>
<clipPath id="clip0_244_684">
<rect width="36" height="36" fill="white" transform="translate(32 16)"/>
</clipPath>
</defs>
</svg>
