<svg width="235" height="68" viewBox="0 0 235 68" fill="none" xmlns="http://www.w3.org/2000/svg">
<rect width="235" height="68" rx="12" fill="white"/>
<g clip-path="url(#clip0_1375_82846)">
<path d="M38.375 29.2188H66.4072V49.9384H38.375V29.2188Z" fill="white"/>
<path d="M32.4219 33.9766V51.5547H67.5781V16.3984H32.4219V33.9766ZM60.7522 32.5703C61.5942 32.7657 62.3595 33.2061 62.9516 33.8359C63.2775 34.1753 63.5608 34.553 63.7953 34.9609C63.7953 35.0059 62.2766 36.0325 61.3513 36.6062C61.3175 36.6287 61.1825 36.4825 61.0334 36.2603C60.8645 35.9688 60.6245 35.7249 60.3358 35.5513C60.0471 35.3777 59.7191 35.2801 59.3825 35.2675C58.3166 35.1944 57.6303 35.7541 57.6359 36.6737C57.6271 36.9027 57.6796 37.1299 57.7878 37.3319C58.0213 37.8184 58.4572 38.1081 59.8241 38.6987C62.3413 39.7816 63.4184 40.4959 64.0878 41.5112C64.8359 42.6362 65.0019 44.4531 64.4956 45.7975C63.9331 47.26 62.555 48.2528 60.6059 48.5819C59.7157 48.6838 58.8163 48.6744 57.9284 48.5537C56.5677 48.3294 55.3142 47.6761 54.3509 46.6891C54.0275 46.3319 53.3975 45.4009 53.4369 45.3334C53.5395 45.2572 53.6476 45.1886 53.7603 45.1281L55.0625 44.4081L56.0722 43.8231L56.2831 44.1353C56.6391 44.6445 57.0922 45.0785 57.6163 45.4122C58.7413 46.0028 60.2769 45.9212 61.0362 45.2378C61.2912 44.9874 61.4503 44.6555 61.4857 44.2998C61.5212 43.9442 61.4308 43.5874 61.2303 43.2916C60.9491 42.9006 60.3866 42.5716 58.8144 41.8853C57.0003 41.1034 56.2184 40.6197 55.5041 39.8491C55.0581 39.3405 54.7288 38.7406 54.5394 38.0912C54.3981 37.3494 54.3772 36.5897 54.4775 35.8412C54.8516 34.0891 56.165 32.8656 58.0831 32.5028C58.9714 32.3929 59.8712 32.4176 60.7522 32.5759V32.5703ZM52.5003 34.0441V35.4841H47.9356V48.4862H44.6984V35.4812H40.1225V34.075C40.1082 33.5901 40.1195 33.1047 40.1562 32.6209C40.1787 32.5956 42.9688 32.5956 46.3438 32.5956H52.4834L52.5003 34.0441Z" fill="#007ACC"/>
</g>
<path d="M88.576 25.32V27.552H84.136V42H81.4V27.552H76.936V25.32H88.576ZM103.251 28.776L95.1389 48.216H92.3069L94.9949 41.784L89.7869 28.776H92.8349L96.5549 38.856L100.419 28.776H103.251ZM108.052 30.72C108.516 30.112 109.148 29.6 109.948 29.184C110.748 28.768 111.652 28.56 112.66 28.56C113.812 28.56 114.86 28.848 115.804 29.424C116.764 29.984 117.516 30.776 118.06 31.8C118.604 32.824 118.876 34 118.876 35.328C118.876 36.656 118.604 37.848 118.06 38.904C117.516 39.944 116.764 40.76 115.804 41.352C114.86 41.928 113.812 42.216 112.66 42.216C111.652 42.216 110.756 42.016 109.972 41.616C109.188 41.2 108.548 40.688 108.052 40.08V48.288H105.316V28.776H108.052V30.72ZM116.092 35.328C116.092 34.416 115.9 33.632 115.516 32.976C115.148 32.304 114.652 31.8 114.028 31.464C113.42 31.112 112.764 30.936 112.06 30.936C111.372 30.936 110.716 31.112 110.092 31.464C109.484 31.816 108.988 32.328 108.604 33C108.236 33.672 108.052 34.464 108.052 35.376C108.052 36.288 108.236 37.088 108.604 37.776C108.988 38.448 109.484 38.96 110.092 39.312C110.716 39.664 111.372 39.84 112.06 39.84C112.764 39.84 113.42 39.664 114.028 39.312C114.652 38.944 115.148 38.416 115.516 37.728C115.9 37.04 116.092 36.24 116.092 35.328ZM133.701 35.064C133.701 35.56 133.669 36.008 133.605 36.408H123.501C123.581 37.464 123.973 38.312 124.677 38.952C125.381 39.592 126.245 39.912 127.269 39.912C128.741 39.912 129.781 39.296 130.389 38.064H133.341C132.941 39.28 132.213 40.28 131.157 41.064C130.117 41.832 128.821 42.216 127.269 42.216C126.005 42.216 124.869 41.936 123.861 41.376C122.869 40.8 122.085 40 121.509 38.976C120.949 37.936 120.669 36.736 120.669 35.376C120.669 34.016 120.941 32.824 121.485 31.8C122.045 30.76 122.821 29.96 123.813 29.4C124.821 28.84 125.973 28.56 127.269 28.56C128.517 28.56 129.629 28.832 130.605 29.376C131.581 29.92 132.341 30.688 132.885 31.68C133.429 32.656 133.701 33.784 133.701 35.064ZM130.845 34.2C130.829 33.192 130.469 32.384 129.765 31.776C129.061 31.168 128.189 30.864 127.149 30.864C126.205 30.864 125.397 31.168 124.725 31.776C124.053 32.368 123.653 33.176 123.525 34.2H130.845ZM141.194 42.216C140.154 42.216 139.218 42.032 138.386 41.664C137.57 41.28 136.922 40.768 136.442 40.128C135.962 39.472 135.706 38.744 135.674 37.944H138.506C138.554 38.504 138.818 38.976 139.298 39.36C139.794 39.728 140.41 39.912 141.146 39.912C141.914 39.912 142.506 39.768 142.922 39.48C143.354 39.176 143.57 38.792 143.57 38.328C143.57 37.832 143.33 37.464 142.85 37.224C142.386 36.984 141.642 36.72 140.618 36.432C139.626 36.16 138.818 35.896 138.194 35.64C137.57 35.384 137.026 34.992 136.562 34.464C136.114 33.936 135.89 33.24 135.89 32.376C135.89 31.672 136.098 31.032 136.514 30.456C136.93 29.864 137.522 29.4 138.29 29.064C139.074 28.728 139.97 28.56 140.978 28.56C142.482 28.56 143.69 28.944 144.602 29.712C145.53 30.464 146.026 31.496 146.09 32.808H143.354C143.306 32.216 143.066 31.744 142.634 31.392C142.202 31.04 141.618 30.864 140.882 30.864C140.162 30.864 139.61 31 139.226 31.272C138.842 31.544 138.65 31.904 138.65 32.352C138.65 32.704 138.778 33 139.034 33.24C139.29 33.48 139.602 33.672 139.97 33.816C140.338 33.944 140.882 34.112 141.602 34.32C142.562 34.576 143.346 34.84 143.954 35.112C144.578 35.368 145.114 35.752 145.562 36.264C146.01 36.776 146.242 37.456 146.258 38.304C146.258 39.056 146.05 39.728 145.634 40.32C145.218 40.912 144.626 41.376 143.858 41.712C143.106 42.048 142.218 42.216 141.194 42.216ZM148.302 35.376C148.302 34.016 148.574 32.824 149.118 31.8C149.678 30.76 150.446 29.96 151.422 29.4C152.398 28.84 153.518 28.56 154.782 28.56C156.382 28.56 157.702 28.944 158.742 29.712C159.798 30.464 160.51 31.544 160.878 32.952H157.926C157.686 32.296 157.302 31.784 156.774 31.416C156.246 31.048 155.582 30.864 154.782 30.864C153.662 30.864 152.766 31.264 152.094 32.064C151.438 32.848 151.11 33.952 151.11 35.376C151.11 36.8 151.438 37.912 152.094 38.712C152.766 39.512 153.662 39.912 154.782 39.912C156.366 39.912 157.414 39.216 157.926 37.824H160.878C160.494 39.168 159.774 40.24 158.718 41.04C157.662 41.824 156.35 42.216 154.782 42.216C153.518 42.216 152.398 41.936 151.422 41.376C150.446 40.8 149.678 40 149.118 38.976C148.574 37.936 148.302 36.736 148.302 35.376ZM166.341 30.696C166.741 30.024 167.269 29.504 167.925 29.136C168.597 28.752 169.389 28.56 170.301 28.56V31.392H169.605C168.533 31.392 167.717 31.664 167.157 32.208C166.613 32.752 166.341 33.696 166.341 35.04V42H163.605V28.776H166.341V30.696ZM174.208 27.024C173.712 27.024 173.296 26.856 172.96 26.52C172.624 26.184 172.456 25.768 172.456 25.272C172.456 24.776 172.624 24.36 172.96 24.024C173.296 23.688 173.712 23.52 174.208 23.52C174.688 23.52 175.096 23.688 175.432 24.024C175.768 24.36 175.936 24.776 175.936 25.272C175.936 25.768 175.768 26.184 175.432 26.52C175.096 26.856 174.688 27.024 174.208 27.024ZM175.552 28.776V42H172.816V28.776H175.552ZM181.88 30.72C182.344 30.112 182.976 29.6 183.776 29.184C184.576 28.768 185.48 28.56 186.488 28.56C187.64 28.56 188.688 28.848 189.632 29.424C190.592 29.984 191.344 30.776 191.888 31.8C192.432 32.824 192.704 34 192.704 35.328C192.704 36.656 192.432 37.848 191.888 38.904C191.344 39.944 190.592 40.76 189.632 41.352C188.688 41.928 187.64 42.216 186.488 42.216C185.48 42.216 184.584 42.016 183.8 41.616C183.016 41.2 182.376 40.688 181.88 40.08V48.288H179.144V28.776H181.88V30.72ZM189.92 35.328C189.92 34.416 189.728 33.632 189.344 32.976C188.976 32.304 188.48 31.8 187.856 31.464C187.248 31.112 186.592 30.936 185.888 30.936C185.2 30.936 184.544 31.112 183.92 31.464C183.312 31.816 182.816 32.328 182.432 33C182.064 33.672 181.88 34.464 181.88 35.376C181.88 36.288 182.064 37.088 182.432 37.776C182.816 38.448 183.312 38.96 183.92 39.312C184.544 39.664 185.2 39.84 185.888 39.84C186.592 39.84 187.248 39.664 187.856 39.312C188.48 38.944 188.976 38.416 189.344 37.728C189.728 37.04 189.92 36.24 189.92 35.328ZM198.601 31.008V38.328C198.601 38.824 198.713 39.184 198.937 39.408C199.177 39.616 199.577 39.72 200.137 39.72H201.817V42H199.657C198.425 42 197.481 41.712 196.825 41.136C196.169 40.56 195.841 39.624 195.841 38.328V31.008H194.281V28.776H195.841V25.488H198.601V28.776H201.817V31.008H198.601Z" fill="#007ACC"/>
<defs>
<clipPath id="clip0_1375_82846">
<rect width="36" height="36" fill="white" transform="translate(32 16)"/>
</clipPath>
</defs>
</svg>
