<svg width="155" height="68" viewBox="0 0 155 68" fill="none" xmlns="http://www.w3.org/2000/svg">
<rect width="155" height="68" rx="12" fill="#242938"/>
<path d="M65.6173 22.9143L50.8326 49.3518C50.7631 49.4762 50.6619 49.5798 50.5392 49.6522C50.4166 49.7245 50.2769 49.7629 50.1345 49.7635C49.9921 49.7641 49.8521 49.7268 49.7288 49.6554C49.6056 49.5841 49.5035 49.4812 49.4331 49.3575L34.3558 22.9166C34.28 22.7839 34.2436 22.6324 34.2509 22.4798C34.2582 22.3271 34.3089 22.1798 34.397 22.0549C34.4851 21.9301 34.607 21.833 34.7483 21.775C34.8897 21.717 35.0447 21.7005 35.1951 21.7275L49.9956 24.3735C50.0897 24.3904 50.1861 24.3904 50.2802 24.3735L64.7713 21.732C64.9211 21.7046 65.0756 21.7204 65.2168 21.7775C65.358 21.8346 65.4801 21.9306 65.5687 22.0544C65.6574 22.1782 65.7091 22.3247 65.7177 22.4768C65.7263 22.6288 65.6915 22.7813 65.6173 22.9143Z" fill="url(#paint0_linear_1375_82817)"/>
<path d="M57.0463 18.2587L46.1068 20.4019C46.0193 20.419 45.9399 20.4647 45.8812 20.532C45.8225 20.5992 45.7879 20.684 45.7828 20.7731L45.1101 32.1401C45.1064 32.2025 45.1173 32.2648 45.1419 32.3223C45.1665 32.3797 45.2042 32.4306 45.2519 32.4709C45.2996 32.5112 45.3561 32.5398 45.4168 32.5544C45.4775 32.5691 45.5409 32.5694 45.6017 32.5552L48.6471 31.8521C48.7127 31.837 48.7811 31.8385 48.8459 31.8567C48.9107 31.8749 48.97 31.9091 49.0181 31.9561C49.0663 32.0032 49.1019 32.0616 49.1216 32.126C49.1413 32.1904 49.1444 32.2587 49.1308 32.3246L48.2263 36.756C48.2124 36.8242 48.2164 36.8949 48.238 36.9611C48.2596 37.0273 48.298 37.0867 48.3495 37.1336C48.4011 37.1804 48.4639 37.2131 48.5318 37.2284C48.5997 37.2436 48.6705 37.241 48.7371 37.2206L50.6181 36.6491C50.6848 36.6287 50.7557 36.626 50.8237 36.6413C50.8918 36.6566 50.9547 36.6894 51.0062 36.7364C51.0578 36.7834 51.0962 36.843 51.1177 36.9094C51.1392 36.9758 51.143 37.0466 51.1288 37.1149L49.69 44.0752C49.6 44.5106 50.1793 44.748 50.4212 44.3756L50.5821 44.1259L59.4977 26.334C59.5312 26.267 59.5452 26.1919 59.5383 26.1173C59.5313 26.0427 59.5036 25.9715 59.4583 25.9118C59.413 25.8521 59.3519 25.8063 59.282 25.7795C59.212 25.7527 59.1359 25.7461 59.0623 25.7602L55.927 26.3644C55.8595 26.3773 55.7898 26.3727 55.7246 26.351C55.6594 26.3293 55.6009 26.2912 55.5546 26.2404C55.5083 26.1896 55.4758 26.1278 55.4603 26.0609C55.4447 25.9939 55.4466 25.9241 55.4657 25.8581L57.511 18.7639C57.5302 18.6977 57.5321 18.6276 57.5165 18.5604C57.5008 18.4933 57.4681 18.4313 57.4216 18.3804C57.375 18.3296 57.3161 18.2915 57.2506 18.27C57.1851 18.2485 57.1151 18.2443 57.0475 18.2576" fill="url(#paint1_linear_1375_82817)"/>
<path d="M92.176 25.32L85.912 42H82.744L76.456 25.32H79.384L84.328 39.192L89.296 25.32H92.176ZM95.8561 27.024C95.3601 27.024 94.9441 26.856 94.6081 26.52C94.2721 26.184 94.1041 25.768 94.1041 25.272C94.1041 24.776 94.2721 24.36 94.6081 24.024C94.9441 23.688 95.3601 23.52 95.8561 23.52C96.3361 23.52 96.7441 23.688 97.0801 24.024C97.4161 24.36 97.5841 24.776 97.5841 25.272C97.5841 25.768 97.4161 26.184 97.0801 26.52C96.7441 26.856 96.3361 27.024 95.8561 27.024ZM97.2001 28.776V42H94.4641V28.776H97.2001ZM103.984 31.008V38.328C103.984 38.824 104.096 39.184 104.32 39.408C104.56 39.616 104.96 39.72 105.52 39.72H107.2V42H105.04C103.808 42 102.864 41.712 102.208 41.136C101.552 40.56 101.224 39.624 101.224 38.328V31.008H99.6642V28.776H101.224V25.488H103.984V28.776H107.2V31.008H103.984ZM121.842 35.064C121.842 35.56 121.81 36.008 121.746 36.408H111.642C111.722 37.464 112.114 38.312 112.818 38.952C113.522 39.592 114.386 39.912 115.41 39.912C116.882 39.912 117.922 39.296 118.53 38.064H121.482C121.082 39.28 120.354 40.28 119.298 41.064C118.258 41.832 116.962 42.216 115.41 42.216C114.146 42.216 113.01 41.936 112.002 41.376C111.01 40.8 110.226 40 109.65 38.976C109.09 37.936 108.81 36.736 108.81 35.376C108.81 34.016 109.082 32.824 109.626 31.8C110.186 30.76 110.962 29.96 111.954 29.4C112.962 28.84 114.114 28.56 115.41 28.56C116.658 28.56 117.77 28.832 118.746 29.376C119.722 29.92 120.482 30.688 121.026 31.68C121.57 32.656 121.842 33.784 121.842 35.064ZM118.986 34.2C118.97 33.192 118.61 32.384 117.906 31.776C117.202 31.168 116.33 30.864 115.29 30.864C114.346 30.864 113.538 31.168 112.866 31.776C112.194 32.368 111.794 33.176 111.666 34.2H118.986Z" fill="white"/>
<defs>
<linearGradient id="paint0_linear_1375_82817" x1="33.9874" y1="20.7823" x2="52.387" y2="45.7704" gradientUnits="userSpaceOnUse">
<stop stop-color="#41D1FF"/>
<stop offset="1" stop-color="#BD34FE"/>
</linearGradient>
<linearGradient id="paint1_linear_1375_82817" x1="49.1466" y1="18.8401" x2="52.475" y2="41.6726" gradientUnits="userSpaceOnUse">
<stop stop-color="#FFEA83"/>
<stop offset="0.083" stop-color="#FFDD35"/>
<stop offset="1" stop-color="#FFA800"/>
</linearGradient>
</defs>
</svg>
