<svg width="152" height="68" viewBox="0 0 152 68" fill="none" xmlns="http://www.w3.org/2000/svg">
<rect width="152" height="68" rx="12" fill="#242938"/>
<path d="M65.6195 22.9142L50.8348 49.3517C50.7653 49.4761 50.6641 49.5797 50.5414 49.652C50.4188 49.7244 50.2791 49.7628 50.1367 49.7634C49.9942 49.7639 49.8542 49.7266 49.731 49.6553C49.6078 49.584 49.5057 49.4811 49.4353 49.3573L34.358 22.9165C34.2822 22.7838 34.2458 22.6323 34.2531 22.4796C34.2604 22.327 34.3111 22.1796 34.3992 22.0548C34.4873 21.93 34.6092 21.8328 34.7505 21.7748C34.8919 21.7168 35.0469 21.7004 35.1973 21.7273L49.9978 24.3733C50.0919 24.3903 50.1883 24.3903 50.2824 24.3733L64.7735 21.7318C64.9233 21.7045 65.0778 21.7202 65.219 21.7773C65.3602 21.8344 65.4823 21.9305 65.5709 22.0543C65.6596 22.1781 65.7113 22.3246 65.7199 22.4766C65.7285 22.6287 65.6937 22.7812 65.6195 22.9142Z" fill="url(#paint0_linear_244_689)"/>
<path d="M57.047 18.2579L46.1075 20.401C46.0199 20.4181 45.9406 20.4639 45.8819 20.5311C45.8232 20.5983 45.7886 20.6832 45.7835 20.7723L45.1108 32.1393C45.107 32.2016 45.1179 32.264 45.1425 32.3214C45.1672 32.3788 45.2048 32.4297 45.2526 32.47C45.3003 32.5103 45.3568 32.5389 45.4175 32.5536C45.4782 32.5682 45.5415 32.5685 45.6024 32.5544L48.6478 31.8513C48.7134 31.8361 48.7817 31.8377 48.8466 31.8559C48.9114 31.874 48.9706 31.9082 49.0188 31.9553C49.067 32.0023 49.1025 32.0607 49.1222 32.1251C49.1419 32.1895 49.1451 32.2578 49.1315 32.3238L48.227 36.7551C48.213 36.8234 48.2171 36.894 48.2387 36.9602C48.2603 37.0264 48.2987 37.0859 48.3502 37.1327C48.4017 37.1796 48.4645 37.2123 48.5325 37.2275C48.6004 37.2428 48.6712 37.2401 48.7378 37.2198L50.6188 36.6483C50.6855 36.6279 50.7563 36.6252 50.8244 36.6405C50.8925 36.6558 50.9554 36.6885 51.0069 36.7355C51.0584 36.7826 51.0969 36.8422 51.1184 36.9085C51.1399 36.9749 51.1437 37.0457 51.1295 37.114L49.6906 44.0744C49.6006 44.5098 50.18 44.7471 50.4219 44.3748L50.5828 44.125L59.4984 26.3331C59.5318 26.2661 59.5459 26.191 59.5389 26.1164C59.532 26.0418 59.5043 25.9707 59.459 25.911C59.4137 25.8513 59.3526 25.8055 59.2826 25.7787C59.2127 25.7519 59.1366 25.7452 59.063 25.7594L55.9276 26.3635C55.8601 26.3764 55.7905 26.3718 55.7253 26.3501C55.6601 26.3284 55.6015 26.2903 55.5553 26.2395C55.509 26.1887 55.4765 26.1269 55.4609 26.06C55.4454 25.9931 55.4473 25.9233 55.4664 25.8573L57.5116 18.763C57.5309 18.6968 57.5328 18.6267 57.5171 18.5596C57.5015 18.4924 57.4688 18.4304 57.4222 18.3796C57.3757 18.3287 57.3168 18.2907 57.2513 18.2692C57.1857 18.2477 57.1158 18.2434 57.0481 18.2568" fill="url(#paint1_linear_244_689)"/>
<path d="M79.2344 26.0312L83.9453 39.8359H84.1328L88.8438 26.0312H91.6328L85.5156 43H82.5391L76.4453 26.0312H79.2344ZM93.5781 43V30.2734H96.0859V43H93.5781ZM94.8438 28.3047C93.9766 28.3047 93.25 27.6484 93.25 26.8281C93.25 26.0078 93.9766 25.3516 94.8438 25.3516C95.6875 25.3516 96.4141 26.0078 96.4141 26.8281C96.4141 27.6484 95.6875 28.3047 94.8438 28.3047ZM105.086 30.2734V32.2656H102.484V39.25C102.484 40.6797 103.211 40.9375 104.008 40.9609C104.359 40.9609 104.922 40.9141 105.273 40.8906V43.0703C104.922 43.1172 104.383 43.1641 103.703 43.1641C101.734 43.1641 99.9766 42.0859 100 39.7656V32.2656H98.125V30.2734H100V27.2266H102.484V30.2734H105.086ZM112.867 43.2578C109.117 43.2578 106.82 40.6797 106.82 36.7188C106.82 32.8047 109.164 30.1094 112.703 30.1094C115.609 30.1094 118.352 31.9141 118.352 36.5078V37.3984H109.305C109.375 39.8125 110.793 41.1953 112.891 41.1953C114.32 41.1953 115.234 40.5859 115.656 39.8125H118.188C117.625 41.875 115.656 43.2578 112.867 43.2578ZM109.328 35.5234H115.891C115.891 33.5781 114.648 32.1719 112.727 32.1719C110.723 32.1719 109.422 33.7188 109.328 35.5234Z" fill="white"/>
<defs>
<linearGradient id="paint0_linear_244_689" x1="33.9896" y1="20.7822" x2="52.3892" y2="45.7703" gradientUnits="userSpaceOnUse">
<stop stop-color="#41D1FF"/>
<stop offset="1" stop-color="#BD34FE"/>
</linearGradient>
<linearGradient id="paint1_linear_244_689" x1="49.1472" y1="18.8393" x2="52.4756" y2="41.6717" gradientUnits="userSpaceOnUse">
<stop stop-color="#FFEA83"/>
<stop offset="0.083" stop-color="#FFDD35"/>
<stop offset="1" stop-color="#FFA800"/>
</linearGradient>
</defs>
</svg>
