<svg width="787" height="129" viewBox="0 0 787 129" fill="none" xmlns="http://www.w3.org/2000/svg">
<path d="M5.368 79.176C8.09867 86.6 12.4933 92.1893 18.552 95.944C24.696 99.784 32.0347 101.704 40.568 101.704C49.1013 101.704 56.0987 99.8267 61.56 96.072C67.1067 92.4027 69.88 87.3253 69.88 80.84C69.88 74.696 67.8747 70.0027 63.864 66.76C59.8533 63.432 54.4347 60.744 47.608 58.696L31.864 53.96C14.2853 48.6693 5.496 39.5813 5.496 26.696C5.496 21.576 6.904 17.096 9.72 13.256C12.536 9.33066 16.4187 6.30133 21.368 4.168C26.3173 2.03466 31.864 0.967995 38.008 0.967995C47.0533 0.967995 54.7333 3.18666 61.048 7.62399C67.3627 12.0613 71.8427 18.0347 74.488 25.544L69.24 27.592C66.5947 20.68 62.6267 15.3893 57.336 11.72C52.0453 8.05066 45.6027 6.216 38.008 6.216C30.1573 6.216 23.7147 8.05066 18.68 11.72C13.6453 15.3893 11.128 20.3813 11.128 26.696C11.128 32.6693 13.0907 37.32 17.016 40.648C20.9413 43.976 26.232 46.664 32.888 48.712L48.76 53.576C56.8667 56.0507 63.352 59.3787 68.216 63.56C73.08 67.7413 75.512 73.5013 75.512 80.84C75.512 86.1307 73.976 90.7387 70.904 94.664C67.9173 98.5893 63.736 101.619 58.36 103.752C53.0693 105.885 47.1387 106.952 40.568 106.952C30.6693 106.952 22.136 104.691 14.968 100.168C7.88533 95.6453 2.936 89.288 0.12 81.096L5.368 79.176ZM144.595 32.328H150.227V105.032H145.235L144.723 92.36C142.163 96.8827 138.622 100.424 134.099 102.984C129.576 105.629 124.328 106.952 118.355 106.952C109.566 106.952 102.782 104.221 98.003 98.76C93.2243 93.384 90.835 86.216 90.835 77.256V32.328H96.467V76.744C96.467 84.424 98.3017 90.4827 101.971 94.92C105.64 99.4427 111.315 101.704 118.995 101.704C124.03 101.704 128.467 100.595 132.307 98.376C136.232 96.1573 139.262 93.0853 141.395 89.16C143.528 85.1493 144.595 80.6693 144.595 75.72V32.328ZM203.749 30.408C212.624 30.408 219.45 33.1387 224.229 38.6C229.008 43.976 231.397 51.144 231.397 60.104V105.032H225.765V60.616C225.765 53.0213 223.888 47.0053 220.133 42.568C216.464 38.0453 210.789 35.784 203.109 35.784C198.16 35.784 193.722 36.8933 189.797 39.112C185.957 41.3307 182.97 44.4027 180.837 48.328C178.704 52.2533 177.637 56.6907 177.637 61.64V105.032H172.005V32.328H176.997L177.509 45C180.069 40.4773 183.61 36.936 188.133 34.376C192.656 31.7307 197.861 30.408 203.749 30.408ZM306.295 32.328H311.287V95.304C311.287 102.216 309.964 108.189 307.319 113.224C304.674 118.259 301.004 122.099 296.311 124.744C291.618 127.389 286.242 128.712 280.183 128.712C273.442 128.712 267.468 127.56 262.263 125.256C257.058 123.037 253.132 119.624 250.487 115.016L255.479 112.328C257.442 115.912 260.642 118.643 265.079 120.52C269.516 122.483 274.551 123.464 280.183 123.464C288.29 123.464 294.562 120.861 298.999 115.656C303.436 110.536 305.655 103.539 305.655 94.664V87.624C303.01 91.976 299.298 95.3467 294.519 97.736C289.826 100.211 284.578 101.448 278.775 101.448C273.399 101.448 268.364 100.168 263.671 97.608C258.978 95.1333 255.18 91.5493 252.279 86.856C249.463 82.1627 248.055 76.6587 248.055 70.344V61.512C248.055 55.368 249.463 49.9493 252.279 45.256C255.18 40.4773 258.978 36.808 263.671 34.248C268.45 31.688 273.484 30.408 278.775 30.408C284.578 30.408 289.868 31.688 294.647 34.248C299.426 36.7227 303.138 40.1787 305.783 44.616L306.295 32.328ZM279.799 96.2C284.663 96.2 289.058 95.1333 292.983 93C296.908 90.8667 299.98 87.8373 302.199 83.912C304.503 79.9013 305.655 75.2933 305.655 70.088V61.64C305.655 56.4347 304.503 51.8693 302.199 47.944C299.895 44.0187 296.78 40.9893 292.855 38.856C288.93 36.7227 284.578 35.656 279.799 35.656C274.935 35.656 270.498 36.7227 266.487 38.856C262.562 40.9893 259.447 44.0187 257.143 47.944C254.839 51.8693 253.687 56.4347 253.687 61.64V70.088C253.687 75.2933 254.839 79.9013 257.143 83.912C259.447 87.8373 262.562 90.8667 266.487 93C270.498 95.1333 274.935 96.2 279.799 96.2ZM388.572 105.032H381.532L349.148 66.888L338.012 77.512V105.032H332.38V2.88799H338.012V70.088L377.692 32.328H385.5L353.116 63.176L388.572 105.032ZM392.45 32.328H398.338L425.09 98.504L452.098 32.328H457.986L423.81 115.528C422.018 119.965 419.842 123.251 417.282 125.384C414.807 127.603 411.821 128.712 408.322 128.712C404.226 128.712 399.831 127.688 395.138 125.64L396.93 120.904C401.623 122.611 405.378 123.464 408.194 123.464C410.327 123.464 412.247 122.781 413.954 121.416C415.746 120.136 417.325 117.789 418.69 114.376L422.402 105.16L392.45 32.328ZM523.845 32.328H529.477V105.032H524.485L523.973 92.36C521.413 96.8827 517.872 100.424 513.349 102.984C508.826 105.629 503.578 106.952 497.605 106.952C488.816 106.952 482.032 104.221 477.253 98.76C472.474 93.384 470.085 86.216 470.085 77.256V32.328H475.717V76.744C475.717 84.424 477.552 90.4827 481.221 94.92C484.89 99.4427 490.565 101.704 498.245 101.704C503.28 101.704 507.717 100.595 511.557 98.376C515.482 96.1573 518.512 93.0853 520.645 89.16C522.778 85.1493 523.845 80.6693 523.845 75.72V32.328ZM587.637 2.88799V99.784H640.117V105.032H582.005V2.88799H587.637ZM660.753 15.176C659.302 15.176 658.065 14.664 657.041 13.64C656.017 12.616 655.505 11.4213 655.505 10.056C655.505 8.60533 656.017 7.368 657.041 6.34399C658.065 5.32 659.302 4.808 660.753 4.808C662.118 4.808 663.313 5.32 664.337 6.34399C665.361 7.368 665.873 8.60533 665.873 10.056C665.873 11.4213 665.361 12.616 664.337 13.64C663.398 14.664 662.204 15.176 660.753 15.176ZM663.569 105.032H657.937V32.328H663.569V105.032ZM761.23 30.408C766.265 30.408 770.617 31.688 774.286 34.248C778.041 36.7227 780.942 40.2213 782.99 44.744C785.038 49.1813 786.062 54.3013 786.062 60.104V105.032H780.43V60.616C780.43 53.1067 778.723 47.0907 775.31 42.568C771.897 37.96 767.033 35.656 760.718 35.656C756.537 35.656 752.825 36.7653 749.582 38.984C746.425 41.2027 743.95 44.3173 742.158 48.328C740.451 52.2533 739.598 56.6907 739.598 61.64V105.032H733.966V60.616C733.966 53.1067 732.259 47.0907 728.846 42.568C725.518 37.96 720.654 35.656 714.254 35.656C710.073 35.656 706.403 36.7653 703.246 38.984C700.089 41.2027 697.614 44.3173 695.822 48.328C694.115 52.2533 693.262 56.6907 693.262 61.64V105.032H687.63V32.328H692.622L693.134 43.976C695.267 39.7093 698.211 36.3813 701.966 33.992C705.721 31.6027 710.03 30.408 714.894 30.408C720.27 30.408 724.921 31.9013 728.846 34.888C732.857 37.8747 735.758 41.9707 737.55 47.176C739.598 42.056 742.713 38.0027 746.894 35.016C751.075 31.944 755.854 30.408 761.23 30.408Z" fill="black"/>
</svg>
