<svg width="28" height="28" viewBox="0 0 28 28" fill="none" xmlns="http://www.w3.org/2000/svg">
<path d="M14 7C13.1347 7 12.2888 7.25659 11.5694 7.73732C10.8499 8.21805 10.2892 8.90133 9.95803 9.70076C9.6269 10.5002 9.54026 11.3799 9.70907 12.2285C9.87788 13.0772 10.2946 13.8567 10.9064 14.4686C11.5183 15.0804 12.2978 15.4971 13.1465 15.6659C13.9951 15.8347 14.8748 15.7481 15.6742 15.417C16.4737 15.0858 17.157 14.5251 17.6377 13.8056C18.1184 13.0862 18.375 12.2403 18.375 11.375C18.375 10.2147 17.9141 9.10188 17.0936 8.28141C16.2731 7.46094 15.1603 7 14 7ZM14 14C13.4808 14 12.9733 13.846 12.5416 13.5576C12.11 13.2692 11.7735 12.8592 11.5748 12.3795C11.3761 11.8999 11.3242 11.3721 11.4254 10.8629C11.5267 10.3537 11.7767 9.88596 12.1438 9.51884C12.511 9.15173 12.9787 8.90172 13.4879 8.80044C13.9971 8.69915 14.5249 8.75114 15.0045 8.94982C15.4842 9.1485 15.8942 9.48495 16.1826 9.91663C16.4711 10.3483 16.625 10.8558 16.625 11.375C16.6243 12.071 16.3475 12.7383 15.8554 13.2304C15.3633 13.7225 14.696 13.9993 14 14Z" fill="black"/>
<path d="M14 1.75C11.5772 1.75 9.20877 2.46845 7.19427 3.8145C5.17977 5.16054 3.60965 7.07373 2.68248 9.31213C1.75531 11.5505 1.51272 14.0136 1.98539 16.3899C2.45805 18.7661 3.62475 20.9489 5.33795 22.6621C7.05114 24.3752 9.23388 25.542 11.6101 26.0146C13.9864 26.4873 16.4495 26.2447 18.6879 25.3175C20.9263 24.3904 22.8395 22.8202 24.1855 20.8057C25.5316 18.7912 26.25 16.4228 26.25 14C26.2463 10.7522 24.9545 7.63855 22.658 5.34203C20.3615 3.04552 17.2478 1.75371 14 1.75ZM8.75001 23.0799V21.875C8.7507 21.179 9.02749 20.5117 9.51962 20.0196C10.0118 19.5275 10.679 19.2507 11.375 19.25H16.625C17.321 19.2507 17.9883 19.5275 18.4804 20.0196C18.9725 20.5117 19.2493 21.179 19.25 21.875V23.0799C17.6568 24.0102 15.845 24.5004 14 24.5004C12.1551 24.5004 10.3432 24.0102 8.75001 23.0799ZM20.993 21.8103C20.9756 20.6625 20.508 19.5676 19.6909 18.7614C18.8739 17.9552 17.7728 17.5022 16.625 17.5H11.375C10.2272 17.5022 9.12611 17.9552 8.30908 18.7614C7.49205 19.5676 7.02444 20.6625 7.00701 21.8103C5.42025 20.3934 4.30127 18.528 3.79824 16.4611C3.2952 14.3941 3.43184 12.2232 4.19006 10.2356C4.94829 8.24808 6.29232 6.53771 8.04421 5.331C9.79609 4.12428 11.8732 3.47815 14.0004 3.47815C16.1277 3.47815 18.2048 4.12428 19.9567 5.331C21.7086 6.53771 23.0526 8.24808 23.8108 10.2356C24.569 12.2232 24.7057 14.3941 24.2027 16.4611C23.6996 18.528 22.5798 20.3934 20.993 21.8103Z" fill="black"/>
</svg>
