<svg width="60" height="60" viewBox="0 0 60 60" fill="none" xmlns="http://www.w3.org/2000/svg">
<rect x="0.5" y="0.5" width="59" height="59" rx="7.5" fill="white" stroke="#C4CFE3"/>
<path d="M15.039 43.3781H20.5977V29.8784L12.6567 23.9227V40.9958C12.6567 42.314 13.7247 43.3781 15.039 43.3781Z" fill="#4285F4"/>
<path d="M39.656 43.3781H45.2147C46.5329 43.3781 47.597 42.31 47.597 40.9958V23.9227L39.656 29.8784" fill="#34A853"/>
<path d="M39.656 19.5553V29.8786L47.597 23.9229V20.7465C47.597 17.8004 44.234 16.1209 41.8795 17.8877" fill="#FBBC04"/>
<path d="M20.5977 29.8784V19.5552L30.1268 26.7021L39.656 19.5552V29.8784L30.1268 37.0253" fill="#EA4335"/>
<path d="M12.6567 20.7465V23.9229L20.5977 29.8786V19.5553L18.3742 17.8877C16.0157 16.1209 12.6567 17.8004 12.6567 20.7465Z" fill="#C5221F"/>
</svg>
