<svg width="60" height="60" viewBox="0 0 60 60" fill="none" xmlns="http://www.w3.org/2000/svg">
<rect width="60" height="60" rx="8" fill="url(#paint0_linear_22_16724)"/>
<path d="M25.0069 30.0769C25.0069 27.3131 27.2461 25.072 30.0091 25.072C32.7721 25.072 35.0125 27.3131 35.0125 30.0769C35.0125 32.8406 32.7721 35.0817 30.0091 35.0817C27.2461 35.0817 25.0069 32.8406 25.0069 30.0769ZM22.3022 30.0769C22.3022 34.3347 25.7526 37.786 30.0091 37.786C34.2657 37.786 37.7161 34.3347 37.7161 30.0769C37.7161 25.8191 34.2657 22.3677 30.0091 22.3677C25.7526 22.3677 22.3022 25.8191 22.3022 30.0769ZM36.2201 22.062C36.2199 22.4184 36.3254 22.7667 36.5232 23.0631C36.721 23.3594 37.0022 23.5904 37.3313 23.7269C37.6603 23.8634 38.0224 23.8993 38.3718 23.8299C38.7212 23.7605 39.0422 23.589 39.2942 23.3372C39.5462 23.0853 39.7179 22.7644 39.7875 22.4149C39.8571 22.0655 39.8216 21.7032 39.6854 21.374C39.5492 21.0447 39.3185 20.7633 39.0224 20.5652C38.7263 20.3671 38.3781 20.2613 38.0219 20.2612H38.0212C37.5437 20.2614 37.0858 20.4512 36.7481 20.7888C36.4104 21.1265 36.2205 21.5844 36.2201 22.062ZM23.9455 42.2974C22.4822 42.2307 21.6868 41.9869 21.1583 41.7809C20.4575 41.508 19.9575 41.183 19.4319 40.6579C18.9062 40.1328 18.5808 39.6332 18.3092 38.9322C18.1031 38.4037 17.8594 37.6079 17.7929 36.1442C17.7201 34.5617 17.7056 34.0863 17.7056 30.077C17.7056 26.0677 17.7213 25.5936 17.7929 24.0098C17.8595 22.5461 18.1051 21.7518 18.3092 21.2218C18.582 20.5208 18.9069 20.0207 19.4319 19.4949C19.9568 18.969 20.4563 18.6436 21.1583 18.3719C21.6866 18.1658 22.4822 17.922 23.9455 17.8554C25.5276 17.7826 26.0028 17.7681 30.0091 17.7681C34.0154 17.7681 34.4912 17.7838 36.0746 17.8554C37.5379 17.9221 38.3319 18.1677 38.8618 18.3719C39.5625 18.6436 40.0625 18.9698 40.5882 19.4949C41.1139 20.02 41.4381 20.5208 41.7109 21.2218C41.9169 21.7502 42.1607 22.5461 42.2272 24.0098C42.2999 25.5936 42.3145 26.0677 42.3145 30.077C42.3145 34.0863 42.2999 34.5603 42.2272 36.1442C42.1605 37.6079 41.9156 38.4035 41.7109 38.9322C41.4381 39.6332 41.1131 40.1333 40.5882 40.6579C40.0632 41.1825 39.5625 41.508 38.8618 41.7809C38.3335 41.987 37.5379 42.2308 36.0746 42.2974C34.4925 42.3701 34.0172 42.3847 30.0091 42.3847C26.001 42.3847 25.5271 42.3701 23.9455 42.2974ZM23.8212 15.1545C22.2234 15.2272 21.1316 15.4807 20.1781 15.8518C19.1906 16.2351 18.3547 16.7492 17.5194 17.5835C16.684 18.4178 16.1713 19.2553 15.7882 20.243C15.4171 21.1974 15.1638 22.2889 15.091 23.8872C15.0171 25.488 15.0001 25.9997 15.0001 30.0769C15.0001 34.154 15.0171 34.6658 15.091 36.2666C15.1638 37.8649 15.4171 38.9564 15.7882 39.9107C16.1713 40.8979 16.6841 41.7363 17.5194 42.5702C18.3546 43.4041 19.1906 43.9176 20.1781 44.3019C21.1334 44.6731 22.2234 44.9265 23.8212 44.9993C25.4224 45.0721 25.9332 45.0902 30.0091 45.0902C34.0851 45.0902 34.5967 45.0733 36.197 44.9993C37.795 44.9265 38.886 44.6731 39.8401 44.3019C40.827 43.9176 41.6635 43.4045 42.4989 42.5702C43.3342 41.736 43.8459 40.8979 44.2301 39.9107C44.6011 38.9564 44.8557 37.8648 44.9272 36.2666C45 34.6646 45.0169 34.154 45.0169 30.0769C45.0169 25.9997 45 25.488 44.9272 23.8872C44.8545 22.2888 44.6011 21.1968 44.2301 20.243C43.8459 19.2559 43.3329 18.4191 42.4989 17.5835C41.6649 16.7479 40.827 16.2351 39.8413 15.8518C38.886 15.4807 37.7948 15.226 36.1982 15.1545C34.5979 15.0817 34.0863 15.0635 30.0103 15.0635C25.9344 15.0635 25.4224 15.0805 23.8212 15.1545Z" fill="white"/>
<defs>
<linearGradient id="paint0_linear_22_16724" x1="58.8468" y1="60" x2="-1.1532" y2="-1.61503e-06" gradientUnits="userSpaceOnUse">
<stop stop-color="#FBE18A"/>
<stop offset="0.21" stop-color="#FCBB45"/>
<stop offset="0.38" stop-color="#F75274"/>
<stop offset="0.52" stop-color="#D53692"/>
<stop offset="0.74" stop-color="#8F39CE"/>
<stop offset="1" stop-color="#5B4FE9"/>
</linearGradient>
</defs>
</svg>
