<svg width="60" height="60" viewBox="0 0 60 60" fill="none" xmlns="http://www.w3.org/2000/svg">
<rect width="60" height="60" rx="8" fill="#006699"/>
<path d="M23.0983 42.1581V25.9503H17.7158V42.1581H23.0988H23.0983ZM20.4082 23.7378C22.2847 23.7378 23.453 22.4933 23.453 20.9379C23.4179 19.3471 22.2847 18.1373 20.4439 18.1373C18.6017 18.1373 17.3986 19.3471 17.3986 20.9378C17.3986 22.4931 18.5665 23.7377 20.3729 23.7377H20.4078L20.4082 23.7378ZM26.0775 42.1581H31.4595V33.1079C31.4595 32.6242 31.4946 32.1391 31.6368 31.7936C32.0257 30.8254 32.9113 29.8231 34.3986 29.8231C36.3457 29.8231 37.125 31.3093 37.125 33.4883V42.1581H42.5069V32.8651C42.5069 27.8869 39.8519 25.5704 36.3108 25.5704C33.4076 25.5704 32.1325 27.1945 31.4241 28.3007H31.4599V25.9509H26.0778C26.148 27.4714 26.0774 42.1586 26.0774 42.1586L26.0775 42.1581Z" fill="white"/>
</svg>
